<svg width="20" height="20" viewBox="0 0 20 20" fill="none" xmlns="http://www.w3.org/2000/svg">
<g clip-path="url(#clip0_401_6564)">
<path d="M4.50725 11.2609C4.26087 11.4493 4.01449 11.7246 3.94203 12.087C3.84058 12.5652 3.92754 13.1739 4.37681 13.6522C4.94203 14.2174 5.7971 14.3768 6.17391 14.4058C7.17391 14.4783 8.24638 13.971 9.05797 13.4203C9.37681 13.2029 9.91304 12.7536 10.4348 12.058C9.27536 11.4638 7.82609 10.7971 6.28986 10.8551C5.47826 10.8841 4.91304 11.0435 4.50725 11.2609ZM19.2029 13.913C19.7101 12.7101 20 11.3913 20 10C20 4.49275 15.5072 0 10 0C4.49275 0 0 4.49275 0 10C0 15.5072 4.49275 20 10 20C13.3333 20 16.2754 18.3623 18.1014 15.8551C16.3768 15.0145 13.5507 13.5942 11.7971 12.7536C10.971 13.7101 9.73913 14.6522 8.34783 15.058C7.47826 15.3188 6.68116 15.4203 5.86957 15.2464C5.04348 15.0725 4.44928 14.6957 4.10145 14.3188C3.92754 14.1159 3.72464 13.8841 3.56522 13.5797C3.57971 13.5942 3.57971 13.6232 3.57971 13.6377C3.57971 13.6377 3.49275 13.4928 3.43478 13.2609C3.4058 13.1449 3.37681 13.029 3.36232 12.913C3.34783 12.8261 3.34783 12.7391 3.36232 12.6667C3.34783 12.5217 3.36232 12.3623 3.3913 12.2029C3.47826 11.7971 3.63768 11.3478 4.08696 10.9275C5.04348 9.98551 6.33333 9.94203 7 9.94203C7.98551 9.95652 9.69565 10.3768 11.1449 10.8986C11.5507 10.0435 11.8116 9.14493 11.971 8.52174H5.95652V7.86957H9.04348V6.56522H5.31884V5.89855H9.04348V4.5942C9.04348 4.42029 9.08696 4.27536 9.36232 4.27536H10.8261V5.89855H14.8696V6.55072H10.8261V7.85507H14.058C14.058 7.85507 13.7246 9.66667 12.7246 11.4493C14.971 12.2464 18.1449 13.4928 19.2029 13.913Z" fill="#06B4FD"/>
</g>
<defs>
<clipPath id="clip0_401_6564">
<rect width="20" height="20" fill="white"/>
</clipPath>
</defs>
</svg>
