<svg width="231" height="173" viewBox="0 0 231 173" fill="none" xmlns="http://www.w3.org/2000/svg">
<path d="M176.423 48.4809C176.314 48.4246 176.194 48.3925 176.071 48.3866C171.52 46.9203 166.713 46.4126 161.959 46.8099C152.905 47.7276 146.177 52.4582 141.865 60.8635C136.681 71.0065 128.583 72.9914 128.258 73.0932C127.998 73.1587 127.742 73.306 127.574 73.5308C127.314 73.8936 127.325 74.3553 127.578 74.721C127.831 75.0861 128.271 75.2581 128.678 75.1517L128.76 75.1465C129.707 74.9418 138.216 72.6349 143.709 61.845C152.445 44.7135 170.159 48.7701 175.396 50.3933C175.736 50.5388 176.147 50.5141 176.485 50.3617C176.678 50.2513 176.832 50.0771 176.918 49.8569C177.15 49.298 176.932 48.6982 176.423 48.4809Z" fill="#7C3AED"/>
<mask id="mask0_166_5478" style="mask-type:alpha" maskUnits="userSpaceOnUse" x="58" y="32" width="118" height="118">
<path d="M116.904 149.266C149.053 149.266 175.115 123.204 175.115 91.055C175.115 58.9056 149.053 32.8438 116.904 32.8438C84.7548 32.8438 58.6924 58.9056 58.6924 91.055C58.6924 123.204 84.7548 149.266 116.904 149.266Z" fill="#D6DAE1"/>
</mask>
<g mask="url(#mask0_166_5478)">
<path d="M147.518 133.348C148.295 136.973 151.837 141.014 155.355 144.214C156.948 145.662 156.01 148.535 153.858 148.585L126.979 149.217C125.719 149.246 124.681 148.231 124.503 146.983C123.917 142.873 121.849 136.873 117.731 129.873C112.766 121.433 112.27 103.064 113.759 100.582C115.248 98.0998 116.825 78.6688 117.731 72.7808C118.724 66.3264 122.365 67.4851 124.681 67.8163C124.681 62.8517 126.341 58.7945 129.15 57.3904C131.135 56.3973 133.617 56.8941 134.114 58.8802C134.61 55.9017 136.597 53.4188 140.568 53.9151C144.509 54.4078 144.32 59.6231 143.989 62.271C144.651 60.9473 147.797 58.6048 150.497 59.3764C152.979 60.0854 153.476 61.8587 153.476 63.8447C153.476 65.8302 151.49 72.284 149.008 83.7024C147.022 92.8374 148.842 102.403 150 106.043C149.67 103.064 153.476 95.4824 159.929 93.1352C168.122 90.1562 170.355 96.6105 168.866 98.5966C164.894 102.071 161.915 104.554 157.944 114.979C150.82 133.681 146.029 126.398 147.518 133.348Z" fill="#01E8FF"/>
<path d="M82.721 118.489C87.2768 129.41 84.58 138.804 81.0978 144.517C80.0059 146.308 81.2772 149.268 83.3748 149.266L110.111 149.239C111.571 149.238 112.692 147.852 112.624 146.393C112.442 142.415 113.128 135.633 116.636 127.349C122.376 113.799 118.724 104.418 116.636 98.1645C115.811 95.6926 109.854 77.3191 106.723 73.1497C104.218 69.8147 100.983 69.1546 99.9394 69.5019C99.4179 68.46 99.4179 65.8541 97.3306 61.6848C95.6953 58.4182 91.9389 58.2107 90.0258 58.558C89.5043 56.9945 88.1571 54.9102 85.3298 54.9102C81.3698 54.9102 80.6338 58.037 81.1559 60.1214C75.9378 60.6429 74.8688 65.7455 76.5662 71.2678C79.3711 80.3936 82.3231 91.3899 83.2426 99.728C82.3732 97.4699 78.5678 92.5307 72.2854 91.3899C66.5463 90.3474 66.2559 96.0802 68.1114 98.1645C72.2854 102.855 76.4599 103.48 82.721 118.489Z" fill="#7C3AED"/>
<path d="M89.4339 58.8789C87.9446 59.3757 88.4391 62.5693 89.4339 65.2206C90.9231 69.1927 96.4276 82.7788 98.443 95.1562M80.5967 61.1916C81.0929 62.7481 83.0732 67.9547 83.9409 70.441C86.322 77.2622 89.1222 85.6963 90.8495 95.1953M98.6735 69.8016C97.9249 70.4755 97.3257 72.3517 98.6735 74.7765C100.359 77.8068 104.486 87.9607 105.637 95.4443M137.118 123.043C136.47 121.773 135.605 119.544 136.145 117.072C137.029 112.905 141.345 110.409 143.569 109.133C147.604 106.804 149.313 107.514 150.481 105.377M139.303 90.7155C135.858 90.7561 132.429 91.1767 129.076 91.9696C124.004 93.1926 119.954 95.1614 117.057 96.8329M138.82 90.6321C139.003 86.5013 139.084 83.8115 140.209 77.7199C141.128 72.7485 142.159 69.2076 144.192 62.2398M129.958 91.7384C129.832 87.0188 130.464 83.8414 131.144 76.816C131.7 71.0833 132.484 66.481 134.168 59.7454M122.381 93.9832C122.27 90.0313 122.661 87.2483 123.261 81.8249C123.788 77.0449 123.926 75.2118 124.907 68.4452" stroke="black" stroke-width="1.1224" stroke-miterlimit="10" stroke-linecap="round" stroke-linejoin="round"/>
<path d="M118.015 102.062C120.318 109.259 120.318 119.333 116.242 127.885" stroke="black" stroke-width="1.1224" stroke-linecap="round"/>
</g>
<path d="M133.143 23.3584C132.9 23.1582 132.594 23.0506 132.28 23.0548C131.985 23.0537 131.752 23.2198 131.587 23.4803C131.13 24.2336 126.952 30.8472 125.192 36.5777C123.895 37.224 122.76 38.179 121.866 39.3877C117.791 45.5718 118.531 56.1794 118.539 56.5997C118.603 57.2627 119.151 57.8636 119.774 57.9136C120.03 57.9429 120.257 57.8509 120.412 57.74L120.528 57.6566C120.727 57.4427 120.82 57.1632 120.807 56.8177C120.807 56.8177 120.148 46.6494 123.815 41.0414C124.019 40.7533 124.218 40.5394 124.456 40.2979C124.223 43.6571 125.611 45.4292 127.047 45.9599C128.484 46.4907 130.192 45.7627 131.35 43.94C131.967 43.0004 132.412 41.9016 132.711 40.7648C133.497 37.9312 132.45 36.5535 131.463 35.913C130.476 35.273 129.221 35.3219 128.176 35.5024C129.719 31.8431 131.507 28.3621 133.574 25.1064C133.739 24.8459 133.76 24.5475 133.708 24.2301C133.584 23.8932 133.383 23.612 133.143 23.3584ZM130.461 39.7534C129.577 42.9406 128.037 43.9026 127.391 43.6565C127.068 43.5329 126.58 42.6065 126.709 40.7401C126.799 39.9661 126.923 39.2388 127.119 38.5304C128.567 37.8478 129.944 37.6408 130.473 37.9703C130.652 38.0554 130.717 38.719 130.461 39.7534Z" fill="#7C3AED"/>
<path d="M71.4706 39.9076C62.4143 42.6026 57.1347 26.3859 57.0697 26.2405C56.9633 25.9127 56.7489 25.6735 56.4642 25.5459C55.88 25.2302 55.1026 25.4711 54.787 26.0547C54.6593 26.3394 54.607 26.6717 54.7134 26.9995C55.8007 30.2425 57.3009 33.3268 59.2231 36.1558C62.975 41.547 67.4508 43.6365 72.1543 42.2174C81.295 39.4712 86.1768 50.6883 86.3855 51.1851C86.608 51.7428 87.2152 52.0211 87.8006 51.9205C87.8615 51.9067 87.9225 51.8929 88.007 51.8418C88.2364 51.7256 88.4291 51.5859 88.5699 51.3616L88.6878 51.1748C88.8155 50.8901 88.8304 50.5342 88.7005 50.2432C87.5861 47.8714 86.1204 45.6433 84.3207 43.7785C80.5585 39.8944 76.0896 38.5397 71.4706 39.9076Z" fill="#01E8FF"/>
<path d="M158.315 34.71C159.078 34.71 159.811 34.4068 160.35 33.8669C160.89 33.3271 161.193 32.595 161.193 31.8316C161.193 31.0682 160.89 30.336 160.35 29.7962C159.811 29.2564 159.078 28.9531 158.315 28.9531C157.552 28.9531 156.819 29.2564 156.28 29.7962C155.74 30.336 155.437 31.0682 155.437 31.8316C155.437 32.595 155.74 33.3271 156.28 33.8669C156.819 34.4068 157.552 34.71 158.315 34.71Z" fill="#00EADB"/>
<path d="M92.1471 39.386C93.3778 39.386 94.558 38.8971 95.4282 38.0269C96.2985 37.1567 96.7873 35.9764 96.7873 34.7457C96.7873 33.515 96.2985 32.3348 95.4282 31.4646C94.558 30.5944 93.3778 30.1055 92.1471 30.1055C90.9164 30.1055 89.7361 30.5944 88.8659 31.4646C87.9957 32.3348 87.5068 33.515 87.5068 34.7457C87.5068 35.9764 87.9957 37.1567 88.8659 38.0269C89.7361 38.8971 90.9164 39.386 92.1471 39.386Z" fill="#FE5275"/>
<path d="M110.05 50.4387C110.44 50.4387 110.826 50.3618 111.187 50.2124C111.547 50.0631 111.875 49.8442 112.151 49.5682C112.427 49.2923 112.645 48.9647 112.795 48.6042C112.944 48.2437 113.021 47.8573 113.021 47.4671C113.021 47.0769 112.944 46.6906 112.794 46.3301C112.645 45.9696 112.426 45.6421 112.15 45.3662C111.874 45.0903 111.547 44.8714 111.186 44.7222C110.826 44.5729 110.439 44.4961 110.049 44.4961C109.261 44.4962 108.505 44.8093 107.948 45.3666C107.391 45.9239 107.078 46.6797 107.078 47.4677C107.078 48.2557 107.391 49.0115 107.949 49.5686C108.506 50.1258 109.262 50.4388 110.05 50.4387Z" fill="#00EADB"/>
<path d="M58.0648 89.8008C58.455 89.8008 58.8414 89.724 59.2019 89.5747C59.5624 89.4254 59.89 89.2066 60.1659 88.9307C60.4418 88.6548 60.6607 88.3273 60.8101 87.9668C60.9594 87.6063 61.0363 87.2199 61.0364 86.8297C61.0364 86.4395 60.9596 86.0532 60.8103 85.6927C60.661 85.3321 60.4422 85.0046 60.1663 84.7286C59.8904 84.4527 59.5629 84.2338 59.2024 84.0844C58.8419 83.9351 58.4555 83.8582 58.0653 83.8581C57.2773 83.8581 56.5215 84.171 55.9642 84.7282C55.4069 85.2854 55.0938 86.0411 55.0938 86.8292C55.0937 87.6172 55.4067 88.373 55.9638 88.9303C56.521 89.4876 57.2767 89.8007 58.0648 89.8008ZM172.088 74.2022C172.636 74.2022 173.179 74.0942 173.686 73.8845C174.192 73.6748 174.652 73.3674 175.039 72.9798C175.427 72.5923 175.734 72.1322 175.944 71.6259C176.154 71.1196 176.262 70.5769 176.262 70.0288C176.262 69.4808 176.154 68.9381 175.944 68.4317C175.734 67.9254 175.427 67.4653 175.039 67.0778C174.652 66.6903 174.192 66.3829 173.686 66.1731C173.179 65.9634 172.636 65.8555 172.088 65.8555C170.982 65.8555 169.92 66.2952 169.137 67.0778C168.355 67.8605 167.915 68.922 167.915 70.0288C167.915 71.1357 168.355 72.1972 169.137 72.9798C169.92 73.7625 170.982 74.2022 172.088 74.2022Z" fill="#2450F5"/>
<path d="M158.259 86.9864C161.407 86.9864 163.96 84.4339 163.96 81.2852C163.96 78.1365 161.407 75.5841 158.259 75.5841C155.11 75.5841 152.557 78.1365 152.557 81.2852C152.557 84.4339 155.11 86.9864 158.259 86.9864ZM64.4238 66.2616C67.5725 66.2616 70.1249 63.7092 70.1249 60.5605C70.1249 57.4118 67.5725 54.8594 64.4238 54.8594C61.2751 54.8594 58.7227 57.4124 58.7227 60.5605C58.7227 63.7092 61.2751 66.2616 64.4238 66.2616Z" fill="#E5E5E5"/>
</svg>
