<svg width="20" height="20" viewBox="0 0 20 20" fill="none" xmlns="http://www.w3.org/2000/svg">
<path d="M19.7412 12.2656C19.7412 9.50781 16.9814 7.26172 13.8838 7.26172C10.6025 7.26172 8.01855 9.50977 8.01855 12.2656C8.01855 15.0273 10.6025 17.2695 13.8838 17.2695C14.5713 17.2695 15.2646 17.0957 15.9541 16.9238L17.8447 17.959L17.3252 16.2363C18.71 15.1973 19.7412 13.8203 19.7412 12.2656ZM12.0693 11.5C11.6377 11.5 11.2881 11.1504 11.2881 10.7188C11.2881 10.2871 11.6377 9.9375 12.0693 9.9375C12.501 9.9375 12.8506 10.2871 12.8506 10.7188C12.8506 11.1484 12.501 11.5 12.0693 11.5ZM15.8643 11.4941C15.4326 11.4941 15.083 11.1445 15.083 10.7129C15.083 10.2813 15.4326 9.93164 15.8643 9.93164C16.2959 9.93164 16.6455 10.2813 16.6455 10.7129C16.6455 11.1445 16.2959 11.4941 15.8643 11.4941Z" fill="#00C800"/>
<path d="M7.15413 2.08789C3.36311 2.08789 0.257645 4.67188 0.257645 7.95313C0.257645 9.84766 1.29085 11.4023 3.01741 12.6094L2.32796 14.6836L4.73811 13.4746C5.6014 13.6445 6.2928 13.8203 7.15413 13.8203C7.37093 13.8203 7.58577 13.8105 7.79866 13.793C7.66389 13.332 7.58577 12.8496 7.58577 12.3477C7.58577 9.33398 10.1737 6.88867 13.4491 6.88867C13.6737 6.88867 13.8944 6.9043 14.1131 6.92969C13.5155 4.15234 10.5448 2.08789 7.15413 2.08789ZM4.83772 6.82031C4.32015 6.82031 3.90022 6.40039 3.90022 5.88281C3.90022 5.36523 4.32015 4.94531 4.83772 4.94531C5.3553 4.94531 5.77522 5.36523 5.77522 5.88281C5.77522 6.40039 5.3553 6.82031 4.83772 6.82031ZM9.65413 6.82031C9.13655 6.82031 8.71663 6.40039 8.71663 5.88281C8.71663 5.36523 9.13655 4.94531 9.65413 4.94531C10.1717 4.94531 10.5916 5.36523 10.5916 5.88281C10.5916 6.40039 10.1717 6.82031 9.65413 6.82031Z" fill="#00C800"/>
</svg>
