<svg width="60" height="60" viewBox="0 0 60 60" fill="none" xmlns="http://www.w3.org/2000/svg">
<g clip-path="url(#clip0_66_4405)">
<rect width="60" height="60" rx="8" fill="white"/>
<rect width="60" height="60" fill="#07C160"/>
<rect x="11" y="11" width="38" height="38" fill="white"/>
<path d="M18.709 22.5828C18.709 23.1036 18.9159 23.603 19.2841 23.9713C19.6524 24.3395 20.1518 24.5464 20.6726 24.5464C21.1934 24.5464 21.6929 24.3395 22.0611 23.9713C22.4294 23.603 22.6363 23.1036 22.6363 22.5828C22.6363 22.062 22.4294 21.5625 22.0611 21.1943C21.6929 20.826 21.1934 20.6191 20.6726 20.6191C20.1518 20.6191 19.6524 20.826 19.2841 21.1943C18.9159 21.5625 18.709 22.062 18.709 22.5828Z" fill="#50B674"/>
<path d="M27.4907 22.5261C27.4907 23.0469 27.6976 23.5464 28.0659 23.9146C28.4341 24.2829 28.9336 24.4898 29.4544 24.4898C29.9751 24.4898 30.4746 24.2829 30.8429 23.9146C31.2111 23.5464 31.418 23.0469 31.418 22.5261C31.418 22.0053 31.2111 21.5059 30.8429 21.1376C30.4746 20.7694 29.9751 20.5625 29.4544 20.5625C28.9336 20.5625 28.4341 20.7694 28.0659 21.1376C27.6976 21.5059 27.4907 22.0053 27.4907 22.5261Z" fill="#50B674"/>
<path d="M32.3999 31.3089C32.3999 31.6706 32.5436 32.0175 32.7993 32.2732C33.055 32.5289 33.4019 32.6726 33.7635 32.6726C34.1252 32.6726 34.472 32.5289 34.7278 32.2732C34.9835 32.0175 35.1272 31.6706 35.1272 31.3089C35.1272 30.9473 34.9835 30.6004 34.7278 30.3447C34.472 30.089 34.1252 29.9453 33.7635 29.9453C33.4019 29.9453 33.055 30.089 32.7993 30.3447C32.5436 30.6004 32.3999 30.9473 32.3999 31.3089Z" fill="#50B674"/>
<path d="M39.3267 31.4183C39.3267 31.78 39.4703 32.1268 39.7261 32.3826C39.9818 32.6383 40.3286 32.782 40.6903 32.782C41.052 32.782 41.3988 32.6383 41.6545 32.3826C41.9103 32.1268 42.0539 31.78 42.0539 31.4183C42.0539 31.0567 41.9103 30.7098 41.6545 30.4541C41.3988 30.1984 41.052 30.0547 40.6903 30.0547C40.3286 30.0547 39.9818 30.1984 39.7261 30.4541C39.4703 30.7098 39.3267 31.0567 39.3267 31.4183Z" fill="#50B674"/>
<path d="M29.9995 0C13.4177 0 -0.000488281 13.4182 -0.000488281 30C-0.000488281 46.5818 13.4177 60 29.9995 60C46.5813 60 59.9995 46.5818 59.9995 30C59.9995 13.4182 46.5813 0 29.9995 0ZM24.8722 36.9273C23.2904 36.9273 22.0359 36.6 20.4541 36.2727L16.0359 38.4545L17.2904 34.6909C14.1268 32.5091 12.2722 29.6727 12.2722 26.1818C12.2722 20.1818 17.945 15.4909 24.8722 15.4909C31.0359 15.4909 36.4904 19.2545 37.5813 24.3273C37.1995 24.2727 36.7631 24.2727 36.3813 24.2727C30.3813 24.2727 25.6904 28.7455 25.6904 34.2545C25.6904 35.1818 25.8541 36.0545 26.0722 36.8727C25.6359 36.8727 25.2541 36.9273 24.8722 36.9273ZM43.3086 41.3455L44.2359 44.5091L40.7995 42.6C39.545 42.9273 38.2904 43.2545 37.0359 43.2545C31.0359 43.2545 26.345 39.1636 26.345 34.1455C26.345 29.1273 31.0359 25.0364 37.0359 25.0364C42.7086 25.0364 47.7268 29.1273 47.7268 34.1455C47.7268 36.9273 45.8722 39.4364 43.3086 41.3455Z" fill="#07C160"/>
</g>
<rect x="1.5" y="1.5" width="57" height="57" rx="6.5" stroke="white" stroke-width="3"/>
<defs>
<clipPath id="clip0_66_4405">
<rect width="60" height="60" rx="8" fill="white"/>
</clipPath>
</defs>
</svg>
