<?xml version="1.0" encoding="UTF-8"?>
<svg version="1.1" xmlns="http://www.w3.org/2000/svg" width="2048" height="2048">
<path d="M0 0 C675.84 0 1351.68 0 2048 0 C2048 675.84 2048 1351.68 2048 2048 C1372.16 2048 696.32 2048 0 2048 C0 1372.16 0 696.32 0 0 Z " fill="#FDFDFC" transform="translate(0,0)"/>
<path d="M0 0 C2.89436373 0.00463358 5.78830736 -0.00232307 8.68261719 -0.02050781 C33.91844511 -0.17731816 58.30013823 1.53500574 83.00292969 7.05004883 C90.35770688 8.66104863 97.77991438 9.83296009 105.22045898 10.97167969 C106.1631665 11.12000244 107.10587402 11.2683252 108.07714844 11.42114258 C108.9036792 11.54642334 109.73020996 11.6717041 110.58178711 11.80078125 C113.19871338 12.36458731 115.49806584 13.30284962 117.97167969 14.31567383 C120.2328504 14.7451107 122.50526534 15.11840311 124.78417969 15.44067383 C125.945625 15.60825195 127.10707031 15.77583008 128.30371094 15.94848633 C129.18414063 16.0696582 130.06457031 16.19083008 130.97167969 16.31567383 C130.97167969 16.97567383 130.97167969 17.63567383 130.97167969 18.31567383 C132.85693359 18.45875977 132.85693359 18.45875977 134.78027344 18.60473633 C140.44932996 19.23697312 145.6389867 20.8959842 151.03417969 22.69067383 C151.97583984 22.99489258 152.9175 23.29911133 153.88769531 23.61254883 C160.55571079 25.78417809 167.09811876 28.20786866 173.63964844 30.72973633 C180.60310466 33.34251888 187.7207743 35.54182718 194.79785156 37.82348633 C201.224353 39.93314166 207.33748113 42.30594155 213.45532227 45.18676758 C217.10157357 46.8225749 220.8292468 48.00605132 224.65917969 49.12817383 C225.72942383 49.45205078 225.72942383 49.45205078 226.82128906 49.7824707 C228.53604361 50.30034959 230.25355852 50.80907599 231.97167969 51.31567383 C231.97167969 51.97567383 231.97167969 52.63567383 231.97167969 53.31567383 C232.96167969 53.58508789 233.95167969 53.85450195 234.97167969 54.13208008 C239.05436872 55.29958949 243.00452182 56.74458985 246.97167969 58.25317383 C247.64457031 58.50518555 248.31746094 58.75719727 249.01074219 59.0168457 C256.94260806 62.01043601 264.50182955 65.5227444 272.01074219 69.44262695 C276.27254046 71.61877684 280.32782801 73.14866423 284.97167969 74.31567383 C284.97167969 74.97567383 284.97167969 75.63567383 284.97167969 76.31567383 C286.18855469 76.68692383 287.40542969 77.05817383 288.65917969 77.44067383 C296.59280154 80.08104325 304.1001728 83.82795389 311.53417969 87.62817383 C314.17813665 88.92611633 316.1650813 89.69539716 318.97167969 90.31567383 C318.97167969 90.97567383 318.97167969 91.63567383 318.97167969 92.31567383 C320.14085937 92.56704102 321.31003906 92.8184082 322.51464844 93.07739258 C326.84877549 94.163069 330.42195403 95.92544606 334.28417969 98.12817383 C338.72114524 100.58327636 343.13067033 102.91137358 347.78417969 104.94067383 C352.34139339 106.94503528 356.48755846 109.36872096 360.71777344 111.98364258 C363.04358078 113.3581665 365.42087572 114.40867248 367.92871094 115.40942383 C374.43143363 118.2939968 380.67495754 121.92822892 386.78417969 125.56567383 C389.22821537 126.90749734 391.31428075 127.84646204 393.90917969 128.75317383 C397.53740492 130.04351779 400.49345636 131.8254767 403.70605469 133.92504883 C408.27536953 136.72966277 413.15904285 138.96349758 417.97167969 141.31567383 C422.79182961 143.69145523 427.56591929 146.14112259 432.31103516 148.66333008 C447.5412555 156.75834999 462.96921873 164.44839019 478.53417969 171.87817383 C479.40864746 172.29583008 480.28311523 172.71348633 481.18408203 173.14379883 C485.07238139 174.98800305 488.94345267 176.79170246 492.97167969 178.31567383 C492.97167969 178.97567383 492.97167969 179.63567383 492.97167969 180.31567383 C494.20917969 180.68692383 495.44667969 181.05817383 496.72167969 181.44067383 C501.77490672 183.10911688 506.37511109 185.43956746 511.07714844 187.91333008 C513.99311571 189.32605916 516.89415167 190.31495383 519.97167969 191.31567383 C521.23721667 191.90858289 522.48961193 192.53102693 523.72167969 193.19067383 C527.56659422 195.17183208 531.50554982 196.74576054 535.53417969 198.31176758 C537.75942367 199.22825428 539.84725174 200.25171304 541.97167969 201.37817383 C545.6258993 203.26375115 549.3075067 204.35659527 553.25683594 205.46411133 C557.35449404 206.74941991 561.24226927 208.48538124 565.18652344 210.17504883 C568.41566507 211.49750234 571.59060624 212.47040547 574.97167969 213.31567383 C574.97167969 213.97567383 574.97167969 214.63567383 574.97167969 215.31567383 C575.92042969 215.58379883 576.86917969 215.85192383 577.84667969 216.12817383 C578.48605469 216.31250977 579.12542969 216.4968457 579.78417969 216.68676758 C581.30302358 217.1234352 582.82403788 217.55259576 584.34667969 217.97583008 C588.43232147 219.14406828 592.27259864 220.39221835 596.09667969 222.25317383 C600.90788123 224.49611832 605.93949282 225.65711143 611.07836914 226.87915039 C616.16904255 228.09227782 621.04458501 229.56196216 625.97167969 231.31567383 C626.96167969 231.64567383 627.95167969 231.97567383 628.97167969 232.31567383 C628.97167969 232.97567383 628.97167969 233.63567383 628.97167969 234.31567383 C629.87917969 234.39817383 630.78667969 234.48067383 631.72167969 234.56567383 C635.08389494 235.04026087 638.0867981 235.99419288 641.28417969 237.12817383 C647.88575545 239.41111576 654.56557792 240.85300955 661.38183594 242.31567383 C665.66201622 243.23625871 669.9133807 244.24848652 674.15917969 245.31567383 C675.14096191 245.56099854 675.14096191 245.56099854 676.14257812 245.8112793 C679.35683421 246.62322625 682.55196114 247.48043768 685.74121094 248.38598633 C692.68681752 250.34966568 699.39323387 251.75921741 706.57373047 252.52709961 C712.2333094 253.15473675 717.76546025 254.19669082 723.34667969 255.31567383 C731.2434658 256.87495267 739.08287451 258.08806618 747.09619141 258.84448242 C750.30669929 259.15044314 753.51356394 259.47928664 756.7199707 259.82543945 C771.47889261 261.36070662 786.14022292 261.71232356 800.97167969 261.69067383 C802.18736633 261.69112701 803.40305298 261.6915802 804.65557861 261.69204712 C836.26693514 261.65763689 867.1752007 258.44724885 898.09667969 251.87817383 C899.11020508 251.66427002 900.12373047 251.45036621 901.16796875 251.22998047 C915.6743054 248.13512651 929.796852 244.48868448 943.66308594 239.15551758 C946.17928894 238.24014762 948.71881829 237.4078771 951.26464844 236.57910156 C961.50273329 233.23920736 971.32767114 229.37284513 980.81542969 224.23364258 C982.97167969 223.31567383 982.97167969 223.31567383 986.97167969 223.31567383 C986.97167969 222.65567383 986.97167969 221.99567383 986.97167969 221.31567383 C990.05977664 219.551047 991.20480104 219.31567383 994.97167969 219.31567383 C994.97167969 218.65567383 994.97167969 217.99567383 994.97167969 217.31567383 C996.08542969 216.92379883 997.19917969 216.53192383 998.34667969 216.12817383 C1002.6992456 214.51150649 1006.76241946 212.45954259 1010.87011719 210.30395508 C1012.97167969 209.31567383 1012.97167969 209.31567383 1014.97167969 209.31567383 C1014.97167969 208.65567383 1014.97167969 207.99567383 1014.97167969 207.31567383 C1015.52210937 207.03336914 1016.07253906 206.75106445 1016.63964844 206.46020508 C1031.17644193 198.77486154 1045.23283402 190.07633609 1058.17358398 179.92260742 C1062.78842725 176.31567383 1062.78842725 176.31567383 1064.97167969 176.31567383 C1064.97167969 175.65567383 1064.97167969 174.99567383 1064.97167969 174.31567383 C1065.63167969 174.31567383 1066.29167969 174.31567383 1066.97167969 174.31567383 C1066.97167969 173.65567383 1066.97167969 172.99567383 1066.97167969 172.31567383 C1069.08441204 170.55756796 1071.21020921 168.89700724 1073.40917969 167.25317383 C1079.39924593 162.67079963 1084.79383055 157.81300727 1089.97167969 152.31567383 C1091.60589559 150.59692952 1093.24200589 148.94051891 1094.97167969 147.31567383 C1095.63167969 147.31567383 1096.29167969 147.31567383 1096.97167969 147.31567383 C1097.31779297 146.48616211 1097.31779297 146.48616211 1097.67089844 145.63989258 C1099.32791454 142.67915809 1101.42910542 140.57289953 1103.78417969 138.12817383 C1108.50681585 133.11716289 1112.79783932 127.85305869 1116.97167969 122.37817383 C1117.52315674 121.65670166 1118.07463379 120.93522949 1118.64282227 120.19189453 C1120.83545873 117.28793113 1122.88756198 114.46006338 1124.72167969 111.31176758 C1125.13417969 110.65305664 1125.54667969 109.9943457 1125.97167969 109.31567383 C1126.63167969 109.31567383 1127.29167969 109.31567383 1127.97167969 109.31567383 C1128.23980469 108.38754883 1128.50792969 107.45942383 1128.78417969 106.50317383 C1129.97167969 103.31567383 1129.97167969 103.31567383 1131.41699219 101.90161133 C1133.28281056 99.99828907 1134.03292385 98.21374991 1135.03417969 95.75317383 C1136.16357128 92.99092692 1136.83913314 91.44822038 1138.97167969 89.31567383 C1139.30167969 88.47004883 1139.63167969 87.62442383 1139.97167969 86.75317383 C1140.97167969 84.31567383 1140.97167969 84.31567383 1142.97167969 83.31567383 C1143.01840339 110.55809935 1143.05367037 137.80051886 1143.07530403 165.04297638 C1143.08561596 177.69215738 1143.09967475 190.34131349 1143.12255859 202.99047852 C1143.14249496 214.01566761 1143.15539673 225.04083867 1143.15985668 236.06604528 C1143.16246362 241.90361609 1143.16858946 247.74113531 1143.1831398 253.57868958 C1143.19672755 259.07464866 1143.20089988 264.57053496 1143.19789505 270.06650925 C1143.19844468 272.08207469 1143.20241498 274.09764261 1143.21009064 276.11319351 C1143.22007049 278.86929309 1143.21763744 281.62511942 1143.21218872 284.38122559 C1143.2180144 285.175022 1143.22384009 285.96881841 1143.22984231 286.78666925 C1143.20234915 291.94714672 1142.36635058 296.3447544 1140.97167969 301.31567383 C1140.63376452 303.22802335 1140.31906853 305.14470904 1140.03417969 307.06567383 C1138.41366274 317.00068929 1135.83368295 326.16599303 1132.05761719 335.50317383 C1131.17821592 337.78075983 1130.4865796 339.93569202 1129.97167969 342.31567383 C1129.31167969 342.31567383 1128.65167969 342.31567383 1127.97167969 342.31567383 C1127.85695313 342.86739258 1127.74222656 343.41911133 1127.62402344 343.98754883 C1123.70591393 357.97074206 1113.23385431 371.64182044 1104.56542969 383.08129883 C1102.95056798 385.19559158 1102.95056798 385.19559158 1102.06542969 387.30004883 C1100.51834766 390.15109999 1098.28575903 392.05168278 1095.97167969 394.31567383 C1094.66708313 395.86201033 1093.36328829 397.40915479 1092.078125 398.97167969 C1084.74725755 407.85272541 1076.53079504 415.63337712 1067.97167969 423.31567383 C1067.24787109 423.9745459 1066.5240625 424.63341797 1065.77832031 425.31225586 C1065.06353516 425.95404785 1064.34875 426.59583984 1063.61230469 427.25708008 C1062.96293945 427.84303955 1062.31357422 428.42899902 1061.64453125 429.03271484 C1059.97167969 430.31567383 1059.97167969 430.31567383 1057.97167969 430.31567383 C1057.97167969 430.97567383 1057.97167969 431.63567383 1057.97167969 432.31567383 C1056.02246094 433.90942383 1056.02246094 433.90942383 1053.28417969 435.81567383 C1049.468234 438.51332181 1045.72882047 441.25762176 1042.0559082 444.14648438 C1037.03837982 448.08983767 1031.97372269 451.70689508 1026.43261719 454.88989258 C1023.72699237 456.45743711 1021.10188602 458.1248269 1018.47167969 459.81567383 C1011.12005501 464.51082908 1003.67972945 468.98827985 996.03417969 473.19067383 C994.95265625 473.7862207 993.87113281 474.38176758 992.75683594 474.99536133 C989.97167969 476.31567383 989.97167969 476.31567383 986.97167969 476.31567383 C986.97167969 476.97567383 986.97167969 477.63567383 986.97167969 478.31567383 C986.07964844 478.64180664 985.18761719 478.96793945 984.26855469 479.30395508 C983.09808594 479.74094727 981.92761719 480.17793945 980.72167969 480.62817383 C978.98144531 481.27206055 978.98144531 481.27206055 977.20605469 481.92895508 C974.06470791 483.1170751 974.06470791 483.1170751 972.04980469 484.79614258 C968.9716629 487.04688911 965.54989741 488.06419915 961.97167969 489.31567383 C960.66060824 489.80078963 959.35068433 490.2890193 958.04199219 490.78051758 C957.39713867 491.02108887 956.75228516 491.26166016 956.08789062 491.50952148 C950.94182359 493.43140969 945.80595547 495.35924701 940.72167969 497.44067383 C936.18265109 499.28370222 931.56158602 500.8018873 926.90136719 502.30786133 C924.22271824 503.22931657 921.68496099 504.29504112 919.09667969 505.44067383 C914.02729919 507.53863001 908.9945002 508.16161195 903.56152344 508.72583008 C900.7120289 509.19402777 898.52337103 509.77651483 895.85058594 510.74536133 C890.02626378 512.78051402 884.06253139 513.52950584 877.97167969 514.37817383 C869.13342576 515.59667649 869.13342576 515.59667649 860.38964844 517.33911133 C855.07286679 518.58260104 849.70002014 519.22244427 844.28417969 519.87817383 C843.29740234 520.00385742 842.310625 520.12954102 841.29394531 520.2590332 C827.55082758 521.95582408 813.96530604 522.46833362 800.13964844 522.44848633 C798.45160407 522.44916254 796.76355979 522.45013518 795.07551575 522.4513855 C791.55839093 522.4528488 788.04129173 522.45075319 784.52416992 522.44604492 C780.06687714 522.4403618 775.60964479 522.44362648 771.15235424 522.44961739 C767.67144841 522.45327161 764.19055634 522.45206216 760.70965004 522.44948959 C759.06858627 522.44883299 757.42752116 522.44960315 755.78645897 522.45196915 C747.40125249 522.46140703 739.04538486 522.34497729 730.67211914 521.86987305 C729.97704097 521.83115145 729.2819628 521.79242985 728.56582165 521.75253487 C724.82040203 521.51647908 721.20792175 521.07928066 717.53417969 520.31567383 C713.77902283 519.54180587 710.17488392 519.19581446 706.34246826 519.07301331 C694.87973896 518.68374316 683.72241021 516.87990025 672.43554688 514.93212891 C669.18640282 514.37209336 665.93484783 513.82817189 662.68261719 513.28637695 C660.5965231 512.93378655 658.51057953 512.58030411 656.42480469 512.22583008 C655.46229797 512.06429947 654.49979126 511.90276886 653.50811768 511.73634338 C648.82294499 510.92235933 644.46560704 509.91129734 639.97167969 508.31567383 C636.22931211 507.77066884 632.48622122 507.37310745 628.72558594 506.97583008 C625.44889821 506.39959675 622.97478906 505.50778758 619.98071289 504.12548828 C615.58980326 502.35557125 610.87690251 501.48394892 606.28417969 500.37817383 C594.64333706 497.47346297 583.28059024 493.94437767 571.90917969 490.12817383 C570.75248276 489.74147018 570.75248276 489.74147018 569.57241821 489.34695435 C561.96095621 486.79525496 554.38163616 484.20458284 546.96044922 481.1328125 C544.95928712 480.31058201 542.94263279 479.55396564 540.90917969 478.81567383 C538.05655047 477.76951922 535.34110741 476.55569557 532.59667969 475.25317383 C529.53573535 473.85995213 526.85508903 473.04985444 523.53417969 472.56567383 C515.88899186 471.24960081 508.97495514 467.45578394 501.98486328 464.23168945 C498.04146343 462.43740904 494.00836341 460.88446182 489.97167969 459.31567383 C487.51230088 458.33903508 485.05381728 457.36041496 482.59667969 456.37817383 C481.95496826 456.12165039 481.31325684 455.86512695 480.65209961 455.60083008 C474.73434323 453.22983574 468.84099664 450.80440012 462.97167969 448.31567383 C462.194375 447.98954102 461.41707031 447.6634082 460.61621094 447.32739258 C456.49240534 445.55379123 452.57673791 443.57200643 448.65917969 441.37817383 C444.99575474 439.34181486 441.3691733 437.6040151 437.47167969 436.06567383 C429.35075763 432.80451615 421.73853289 428.54362922 414.03808594 424.41064453 C412.26115811 423.46906593 410.46566787 422.56266792 408.66699219 421.66333008 C405.60097779 420.13032288 402.66080821 418.42963883 399.70605469 416.69458008 C397.28231088 415.4723207 394.89933181 414.49043964 392.37011719 413.51489258 C386.64129836 411.26269502 381.26901731 408.46723371 375.84667969 405.56567383 C374.89019531 405.05907227 373.93371094 404.5524707 372.94824219 404.03051758 C370.62029721 402.79670674 368.2948792 401.55838999 365.97167969 400.31567383 C365.97167969 399.65567383 365.97167969 398.99567383 365.97167969 398.31567383 C365.27042969 398.23317383 364.56917969 398.15067383 363.84667969 398.06567383 C360.97167969 397.31567383 360.97167969 397.31567383 358.28417969 395.50317383 C355.56902561 393.71014755 353.55682238 392.69732165 350.57324219 391.59301758 C344.15408278 389.07889055 338.1277605 385.90084033 332.03417969 382.69067383 C330.83451959 382.06299424 329.63464697 381.43572068 328.43457031 380.80883789 C324.94384886 378.98363329 321.45759485 377.15004077 317.97167969 375.31567383 C316.19963116 374.38582071 314.42750506 373.45611543 312.65527344 372.52661133 C308.86787178 370.53795526 305.0839017 368.54287645 301.30126953 366.54516602 C296.96437756 364.25627606 292.62399297 361.97401846 288.28417969 359.69067383 C286.67609328 358.84434529 285.06801904 357.99799365 283.45996094 357.15161133 C282.30882812 356.54575195 281.15769531 355.93989258 279.97167969 355.31567383 C279.97167969 354.65567383 279.97167969 353.99567383 279.97167969 353.31567383 C279.18792969 353.06817383 278.40417969 352.82067383 277.59667969 352.56567383 C272.9876664 350.9763589 268.48620253 349.1536021 263.97167969 347.31567383 C263.97167969 346.65567383 263.97167969 345.99567383 263.97167969 345.31567383 C262.95460938 345.06430664 261.93753906 344.81293945 260.88964844 344.55395508 C256.97423558 343.43372015 253.77044962 341.62084999 250.28417969 339.50317383 C244.85550745 336.27098538 239.41720978 333.66829278 233.49511719 331.42114258 C230.97305987 330.31627846 229.1591079 328.96492526 226.97167969 327.31567383 C225.36759598 326.61951209 223.74040917 325.97472985 222.09667969 325.37817383 C217.96586278 323.7935852 214.62361112 321.83144881 210.97167969 319.31567383 C208.65359605 318.28081506 206.31992671 317.28013242 203.97167969 316.31567383 C198.116258 313.60483045 198.116258 313.60483045 196.97167969 311.31567383 C195.03923823 310.57730814 193.0743081 309.92271564 191.09667969 309.31567383 C187.58810932 308.23351236 185.04243218 307.36284216 181.97167969 305.31567383 C181.97167969 304.65567383 181.97167969 303.99567383 181.97167969 303.31567383 C180.30105469 302.97536133 180.30105469 302.97536133 178.59667969 302.62817383 C173.3027118 301.29084745 168.78805173 298.8343271 163.97167969 296.31567383 C162.65677618 295.65771413 161.34025176 295.00298768 160.02246094 294.35083008 C159.32378906 294.00487793 158.62511719 293.65892578 157.90527344 293.30249023 C156.52669975 292.62050247 155.14781072 291.93915164 153.76855469 291.25854492 C150.59384426 289.6782902 147.4798658 288.05220868 144.42089844 286.25708008 C138.81817231 283.10356379 132.89327889 280.88377972 126.90917969 278.56567383 C120.46941287 276.03487366 114.35501824 273.07362378 108.20214844 269.91723633 C104.55872791 268.11094562 100.8650664 266.59810615 97.06933594 265.14770508 C94.97167969 264.31567383 94.97167969 264.31567383 91.90917969 262.75317383 C89.50109174 261.57474781 87.32293622 260.7435668 84.78417969 259.94067383 C80.27974254 258.49955575 76.09484489 256.57886064 71.81542969 254.57739258 C68.10781765 252.93239438 64.32104096 251.60366733 60.47949219 250.30786133 C57.97167969 249.31567383 57.97167969 249.31567383 55.40527344 247.75317383 C53.07360783 246.37588178 51.54345442 245.85687908 48.90917969 245.44067383 C43.92787801 244.45774139 39.50220768 242.57004221 34.86621094 240.53442383 C31.94053148 239.30255879 28.99401907 238.28282243 25.97167969 237.31567383 C25.97167969 236.65567383 25.97167969 235.99567383 25.97167969 235.31567383 C23.00167969 234.98567383 20.03167969 234.65567383 16.97167969 234.31567383 C16.97167969 233.65567383 16.97167969 232.99567383 16.97167969 232.31567383 C16.40964844 232.1687207 15.84761719 232.02176758 15.26855469 231.87036133 C8.81566305 230.14827062 2.42394731 228.25579736 -3.96582031 226.31567383 C-10.47824701 224.33891385 -16.98181301 222.48099804 -23.61816406 220.95629883 C-26.19061773 220.27253481 -28.5780722 219.35012562 -31.02832031 218.31567383 C-31.02832031 217.65567383 -31.02832031 216.99567383 -31.02832031 216.31567383 C-31.79015625 216.28989258 -32.55199219 216.26411133 -33.33691406 216.23754883 C-39.54739729 215.89639869 -44.16941997 215.05461962 -49.71191406 212.28833008 C-53.22207332 210.81441835 -56.78624123 210.42870946 -60.53808594 209.90161133 C-64.18561355 209.28926758 -67.69494155 208.4369126 -71.27441406 207.50708008 C-79.5310656 205.39851425 -87.83320021 203.54824889 -96.16455078 201.76074219 C-98.52748515 201.25335316 -100.88926867 200.74084726 -103.25097656 200.2277832 C-113.14860225 198.08792105 -123.06610991 196.13167233 -133.02832031 194.31567383 C-134.60124655 194.02275644 -136.17416523 193.7297985 -137.74707031 193.43676758 C-138.99488281 193.21118164 -140.24269531 192.9855957 -141.52832031 192.75317383 C-142.77613281 192.52500977 -144.02394531 192.2968457 -145.30957031 192.06176758 C-172.63325985 187.51202038 -200.27430115 187.12039282 -227.90332031 187.06567383 C-229.10456543 187.06049744 -230.30581055 187.05532104 -231.54345703 187.04998779 C-256.41384177 186.9654842 -280.46829557 188.55964785 -304.14404297 196.67602539 C-305.94462829 197.28726322 -307.7578058 197.86102427 -309.57128906 198.43286133 C-318.47202835 201.45890399 -325.95191822 206.02124076 -330.77832031 214.32739258 C-333.06778722 219.8006494 -332.51283692 224.46845425 -331.02832031 230.12817383 C-323.67419455 247.33340759 -306.4563062 263.9522102 -289.02832031 271.06567383 C-286.02832031 272.31567383 -286.02832031 272.31567383 -285.02832031 274.31567383 C-282.55033093 275.4125616 -280.02283324 276.30015678 -277.47363281 277.21801758 C-274.99280832 278.33161452 -273.90474328 279.41481827 -272.02832031 281.31567383 C-270.34978394 282.16870051 -268.6364799 282.95494512 -266.90332031 283.69067383 C-263.35964822 285.23987079 -259.98514402 286.85359986 -256.65332031 288.81567383 C-251.07285244 292.01758162 -245.06033222 294.1247576 -239.02832031 296.31567383 C-239.02832031 296.97567383 -239.02832031 297.63567383 -239.02832031 298.31567383 C-236.05832031 298.97567383 -233.08832031 299.63567383 -230.02832031 300.31567383 C-230.02832031 300.97567383 -230.02832031 301.63567383 -230.02832031 302.31567383 C-229.00158203 302.49163086 -229.00158203 302.49163086 -227.95410156 302.67114258 C-220.86807086 304.23215068 -213.48855766 306.86315037 -207.09082031 310.31567383 C-202.79927762 312.6094294 -198.20297325 313.97826986 -193.5871582 315.45800781 C-190.12029344 316.58054177 -186.80790083 317.79128003 -183.52832031 319.37817383 C-178.88796094 321.58234453 -173.97050835 322.74638233 -168.99121094 323.92138672 C-167.32202647 324.32946201 -165.67256923 324.81652684 -164.02832031 325.31567383 C-163.69832031 325.97567383 -163.36832031 326.63567383 -163.02832031 327.31567383 C-160.52568339 328.05156826 -158.06901122 328.68220629 -155.52832031 329.25317383 C-150.35591344 330.43892371 -145.34919287 331.82132621 -140.32763672 333.54150391 C-136.40537467 334.86211263 -132.4338778 336.01650467 -128.46582031 337.19067383 C-122.27967843 339.0296425 -116.11312737 340.91363512 -109.96582031 342.87817383 C-104.07727742 344.75593053 -98.14161221 346.35089969 -92.15332031 347.87817383 C-86.43027274 349.34383925 -80.97350337 350.94074314 -75.53613281 353.28051758 C-66.99611009 356.80560484 -58.08042088 359.42668611 -49.10253906 361.55786133 C-43.36434555 362.97235884 -37.70156435 364.66237638 -32.02832031 366.31567383 C-32.02832031 366.97567383 -32.02832031 367.63567383 -32.02832031 368.31567383 C-30.77148438 368.25379883 -30.77148438 368.25379883 -29.48925781 368.19067383 C-25.58864535 368.33155374 -22.38537403 369.1890161 -18.65332031 370.31567383 C-17.40808594 370.68692383 -16.16285156 371.05817383 -14.87988281 371.44067383 C-13.93886719 371.72942383 -12.99785156 372.01817383 -12.02832031 372.31567383 C-12.02832031 372.97567383 -12.02832031 373.63567383 -12.02832031 374.31567383 C-11.22394531 374.43168945 -10.41957031 374.54770508 -9.59082031 374.66723633 C-5.32616866 375.44347775 -1.20289237 376.53336672 2.97167969 377.69067383 C3.75285156 377.89950195 4.53402344 378.10833008 5.33886719 378.32348633 C8.67644882 379.24497351 11.69597086 380.1774386 14.79980469 381.73364258 C19.585243 384.12046834 24.63963672 385.61430862 29.72167969 387.25317383 C37.2551945 389.69076372 44.660723 392.26876456 51.97167969 395.31567383 C51.97167969 396.30567383 51.97167969 397.29567383 51.97167969 398.31567383 C50.91980469 398.91379883 49.86792969 399.51192383 48.78417969 400.12817383 C46.5447659 401.40201041 44.34777774 402.70387948 42.15917969 404.06567383 C39.97167969 405.31567383 39.97167969 405.31567383 37.97167969 405.31567383 C37.97167969 405.97567383 37.97167969 406.63567383 37.97167969 407.31567383 C36.08796964 408.64535151 34.13572037 409.87836883 32.15917969 411.06567383 C31.57330078 411.41984375 30.98742187 411.77401367 30.38378906 412.13891602 C25.75787246 414.91196548 21.0272268 417.46958007 16.26855469 420.00708008 C13.60439026 421.52492886 11.35547436 423.39539479 8.97167969 425.31567383 C6.65188588 426.3466933 4.31738053 427.34503899 1.97167969 428.31567383 C0.30935289 429.25371591 -1.35174217 430.1940973 -3.00292969 431.15161133 C-6.83088188 433.35166871 -10.71739632 435.44705249 -14.59082031 437.56567383 C-19.5340328 440.26947024 -24.47354412 442.97290578 -29.34082031 445.81176758 C-29.98075928 446.18462891 -30.62069824 446.55749023 -31.2800293 446.94165039 C-32.98209012 447.93943392 -34.67921059 448.94563132 -36.37597656 449.95239258 C-39.02832031 451.31567383 -39.02832031 451.31567383 -42.02832031 451.31567383 C-42.02832031 451.97567383 -42.02832031 452.63567383 -42.02832031 453.31567383 C-42.68832031 453.56317383 -43.34832031 453.81067383 -44.02832031 454.06567383 C-48.54791333 455.94883759 -52.8820184 458.18886532 -57.21582031 460.46411133 C-57.91707031 460.82762695 -58.61832031 461.19114258 -59.34082031 461.56567383 C-59.97632813 461.90083008 -60.61183594 462.23598633 -61.26660156 462.58129883 C-63.02832031 463.31567383 -63.02832031 463.31567383 -66.02832031 463.31567383 C-66.02832031 463.97567383 -66.02832031 464.63567383 -66.02832031 465.31567383 C-81.45689174 473.31567383 -81.45689174 473.31567383 -87.02832031 473.31567383 C-87.35832031 474.30567383 -87.68832031 475.29567383 -88.02832031 476.31567383 C-90.70257058 477.44167394 -93.2890652 478.38972844 -96.02832031 479.31567383 C-102.69719098 481.74205456 -109.23473161 484.44632239 -115.77832031 487.19067383 C-121.88769531 489.74536133 -121.88769531 489.74536133 -124.93579102 491.01831055 C-127.05947822 491.90922977 -129.18027128 492.80706971 -131.29858398 493.71069336 C-132.87990112 494.38140869 -132.87990112 494.38140869 -134.49316406 495.06567383 C-135.44054443 495.47043945 -136.3879248 495.87520508 -137.36401367 496.29223633 C-140.47399129 497.48686899 -143.51719287 498.22403221 -146.79785156 498.76098633 C-149.22173169 499.2957662 -149.22173169 499.2957662 -152.10180664 500.67675781 C-156.32994196 502.5101223 -160.66215199 503.8092329 -165.08300781 505.09301758 C-166.37272995 505.47194908 -166.37272995 505.47194908 -167.68850708 505.85853577 C-169.50492325 506.39092086 -171.32198454 506.92110934 -173.13964844 507.44921875 C-175.86232075 508.24124701 -178.58212803 509.04256631 -181.30175781 509.8449707 C-190.90208821 512.65889081 -200.51138895 515.25647705 -210.27099609 517.45849609 C-212.9024734 518.05882857 -215.50921067 518.68972667 -218.12158203 519.36230469 C-221.46796317 520.205793 -224.79788233 520.82044866 -228.21582031 521.31567383 C-229.32699219 521.48067383 -230.43816406 521.64567383 -231.58300781 521.81567383 C-233.87988281 522.14900716 -236.17675781 522.48234049 -238.47363281 522.81567383 C-244.44049345 523.70170418 -250.19807275 524.77669282 -256.02832031 526.31567383 C-271.79467864 529.35760677 -287.71933823 529.50228134 -303.71459961 529.50097656 C-306.69366884 529.50315761 -309.67236325 529.52137123 -312.65136719 529.5402832 C-324.49943198 529.57456863 -336.10832224 528.97325228 -347.87364197 527.57040405 C-350.05234015 527.31283416 -352.23245371 527.07575469 -354.4140625 526.84423828 C-374.24587498 524.70386312 -395.6000206 519.99413204 -414.02832031 512.31567383 C-415.51332031 511.85161133 -415.51332031 511.85161133 -417.02832031 511.37817383 C-420.02832031 510.31567383 -420.02832031 510.31567383 -422.27832031 508.94067383 C-424.64815563 507.54031659 -426.71798977 506.64214802 -429.27832031 505.69067383 C-434.37501213 503.71676595 -439.14701458 501.25276382 -443.96582031 498.69067383 C-445.0848877 498.09585205 -445.0848877 498.09585205 -446.2265625 497.48901367 C-449.26017883 495.86015675 -452.15891947 494.22860772 -455.02832031 492.31567383 C-455.02832031 491.65567383 -455.02832031 490.99567383 -455.02832031 490.31567383 C-455.73601562 490.23446289 -456.44371094 490.15325195 -457.17285156 490.06958008 C-460.73460468 489.1291993 -462.81261022 487.51294884 -465.71582031 485.25317383 C-466.49856323 484.64699219 -466.49856323 484.64699219 -467.29711914 484.02856445 C-468.88012562 482.79854026 -470.4543028 481.55718014 -472.02832031 480.31567383 C-473.35863281 479.29666992 -473.35863281 479.29666992 -474.71582031 478.25708008 C-483.42155455 471.49653333 -490.94982539 463.74320927 -498.02832031 455.31567383 C-498.66511719 454.57961914 -499.30191406 453.84356445 -499.95800781 453.08520508 C-510.41820158 440.61030473 -523.02832031 421.00381027 -523.02832031 404.31567383 C-523.68832031 404.31567383 -524.34832031 404.31567383 -525.02832031 404.31567383 C-526.89353124 395.96896115 -527.33404723 387.97618023 -527.27832031 379.44067383 C-527.28605469 378.26375977 -527.29378906 377.0868457 -527.30175781 375.87426758 C-527.27551776 363.94816323 -525.6604367 352.947731 -521.71582031 341.69067383 C-521.40604248 340.78551025 -521.09626465 339.88034668 -520.77709961 338.94775391 C-518.55319608 332.55439069 -516.07461624 326.3658086 -513.02832031 320.31567383 C-512.66867187 319.5602832 -512.30902344 318.80489258 -511.93847656 318.02661133 C-510.60568621 315.26044267 -509.36002116 312.74025091 -507.46582031 310.31567383 C-505.79480211 308.1862969 -505.79480211 308.1862969 -504.75097656 304.72192383 C-503.038655 300.06197424 -500.65734463 296.01172463 -498.02832031 291.81567383 C-497.5477417 291.04030273 -497.06716309 290.26493164 -496.57202148 289.46606445 C-489.95223019 278.8778445 -483.03604892 268.48031407 -475.07910156 258.84301758 C-473.46992433 256.85989821 -471.91690212 254.86062255 -470.38378906 252.81958008 C-469.93076416 252.21847412 -469.47773926 251.61736816 -469.01098633 250.99804688 C-468.11986936 249.81176043 -467.23346734 248.62191448 -466.35229492 247.42822266 C-465.29075065 246.02109876 -464.1646053 244.66316421 -463.02832031 243.31567383 C-462.36832031 243.31567383 -461.70832031 243.31567383 -461.02832031 243.31567383 C-460.69380859 242.50356445 -460.69380859 242.50356445 -460.35253906 241.67504883 C-458.60754861 238.5659803 -456.27538674 236.13689907 -453.84082031 233.56567383 C-452.83613693 232.48957594 -451.83222935 231.41275322 -450.82910156 230.33520508 C-450.34393066 229.81522949 -449.85875977 229.29525391 -449.35888672 228.75952148 C-447.70267399 226.96230276 -446.1120649 225.11436272 -444.52832031 223.25317383 C-440.8063151 218.9496053 -436.73646424 215.00719954 -432.68847656 211.01489258 C-429.74615587 208.029366 -427.02413226 204.91936616 -424.36816406 201.67895508 C-423.70494141 201.00413086 -423.70494141 201.00413086 -423.02832031 200.31567383 C-422.36832031 200.31567383 -421.70832031 200.31567383 -421.02832031 200.31567383 C-420.79371094 199.75493164 -420.55910156 199.19418945 -420.31738281 198.61645508 C-416.40340089 191.63059038 -408.98666344 186.17903882 -402.94628906 181.01879883 C-400.94118124 179.23829575 -399.08308153 177.36474826 -397.21582031 175.44067383 C-393.28117977 171.43632508 -388.99693147 167.98142784 -384.62207031 164.47192383 C-382.43088058 162.65033236 -380.43982604 160.80167033 -378.46582031 158.75317383 C-375.11859862 155.2864085 -371.42695555 152.38939643 -367.63769531 149.42114258 C-364.98977466 147.28457187 -362.47621435 145.04917086 -359.96582031 142.75317383 C-355.49226605 138.68251731 -350.84687771 134.9660961 -346.02832031 131.31567383 C-344.02768638 129.77482991 -342.02774471 128.23308693 -340.02832031 126.69067383 C-338.91128741 125.83370144 -337.79409421 124.97693797 -336.67675781 124.12036133 C-334.09029882 122.13613112 -331.51441905 120.13887062 -328.94238281 118.13598633 C-319.88437519 111.10909907 -310.64415479 104.55390336 -301.02832031 98.31567383 C-300.47192871 97.93169434 -299.91553711 97.54771484 -299.34228516 97.15209961 C-295.23002735 94.31567383 -295.23002735 94.31567383 -293.02832031 94.31567383 C-293.02832031 93.65567383 -293.02832031 92.99567383 -293.02832031 92.31567383 C-292.02671875 91.74719727 -291.02511719 91.1787207 -289.99316406 90.59301758 C-286.16247797 88.40364129 -282.37190509 86.15189147 -278.59082031 83.87817383 C-277.93267334 83.483479 -277.27452637 83.08878418 -276.59643555 82.68212891 C-273.23495546 80.66158301 -269.89610587 78.61488405 -266.59082031 76.50317383 C-256.77246094 70.31567383 -256.77246094 70.31567383 -253.02832031 70.31567383 C-253.02832031 69.65567383 -253.02832031 68.99567383 -253.02832031 68.31567383 C-249.29866892 66.28131852 -247.3592699 65.31567383 -243.02832031 65.31567383 C-243.02832031 64.65567383 -243.02832031 63.99567383 -243.02832031 63.31567383 C-235.60659873 59.48247696 -228.10412047 55.99752867 -220.40722656 52.75317383 C-217.38175463 51.46603664 -214.38961735 50.12815951 -211.40332031 48.75317383 C-188.615338 38.31567383 -188.615338 38.31567383 -183.02832031 38.31567383 C-183.02832031 37.65567383 -183.02832031 36.99567383 -183.02832031 36.31567383 C-182.33867188 36.14551758 -181.64902344 35.97536133 -180.93847656 35.80004883 C-176.36097115 34.61956732 -171.98990226 33.41844314 -167.71582031 31.37817383 C-162.71645974 29.01434573 -157.49667108 27.66478371 -152.16503906 26.24536133 C-149.16755698 25.46393516 -149.16755698 25.46393516 -147.11035156 24.32348633 C-144.58697704 23.1020405 -142.00767289 22.54864637 -139.29003906 21.9050293 C-136.01846479 21.05252711 -132.86109563 19.92069584 -129.67211914 18.80322266 C-121.12476044 15.81255481 -112.88035253 13.460529 -103.93847656 11.98364258 C-99.83983732 11.28347544 -95.8257785 10.38312589 -91.77832031 9.44067383 C-84.03925502 7.69002857 -76.26575533 6.14495374 -68.46582031 4.69067383 C-67.41040039 4.48458496 -66.35498047 4.27849609 -65.26757812 4.06616211 C-43.73120287 0.14380603 -21.8218327 -0.03771628 0 0 Z " fill="#040403" transform="translate(730.0283203125,893.684326171875)"/>
<path d="M0 0 C1.13048012 0.00001699 1.13048012 0.00001699 2.28379822 0.00003433 C32.44604433 0.00161087 32.44604433 0.00161087 46.29589844 1.97192383 C51.76593311 2.70922635 57.23764177 2.85400085 62.75 3 C64.83345882 3.0595636 66.9168086 3.12312684 69 3.19140625 C69.89203125 3.21533447 70.7840625 3.2392627 71.703125 3.26391602 C73.75 3.4375 73.75 3.4375 74.75 4.4375 C76.30602321 4.67694629 77.87103102 4.8584064 79.4375 5.015625 C80.43402588 5.12197266 81.43055176 5.22832031 82.45727539 5.33789062 C83.54387451 5.45326172 84.63047363 5.56863281 85.75 5.6875 C97.99649149 7.06559469 109.94510894 9.31267567 121.99414062 11.86181641 C125.84133164 12.66547307 129.69871771 13.40598077 133.5625 14.125 C134.79484375 14.35574219 136.0271875 14.58648437 137.296875 14.82421875 C141.520092 15.57426973 145.7557073 16.22058839 150.00390625 16.8125 C152.8128882 17.4518131 155.20583752 18.53585388 157.82446289 19.7109375 C161.32888924 21.03326193 164.9921418 21.43231179 168.6875 21.9375 C174.03834294 22.67273033 178.82446871 23.68165312 183.84545898 25.69726562 C186.77265241 26.83497239 189.7833401 27.61788514 192.8125 28.4375 C200.14354455 30.48083369 200.14354455 30.48083369 203.5625 32.0625 C207.53660129 33.7768182 211.51392922 34.62102377 215.75 35.4375 C215.75 36.0975 215.75 36.7575 215.75 37.4375 C216.306875 37.47488281 216.86375 37.51226563 217.4375 37.55078125 C218.200625 37.61652344 218.96375 37.68226563 219.75 37.75 C220.4925 37.80800781 221.235 37.86601563 222 37.92578125 C225.01039411 38.48595402 227.73101814 39.48086646 230.578125 40.59301758 C234.26914096 42.02818217 238.01357843 43.31369087 241.75 44.625 C242.52472656 44.89763672 243.29945313 45.17027344 244.09765625 45.45117188 C245.98151429 46.11401082 247.86572024 46.77586086 249.75 47.4375 C249.75 48.0975 249.75 48.7575 249.75 49.4375 C250.42804687 49.55609375 251.10609375 49.6746875 251.8046875 49.796875 C261.89494674 51.9915733 271.46551752 56.01262123 280.75 60.4375 C281.86375 60.911875 282.9775 61.38625 284.125 61.875 C288.72069204 63.85590174 293.23697564 65.99538979 297.76171875 68.1328125 C300.13039474 69.16697953 302.22992876 69.93471206 304.75 70.4375 C304.75 71.0975 304.75 71.7575 304.75 72.4375 C305.75289062 72.52902344 306.75578125 72.62054687 307.7890625 72.71484375 C311.97379161 73.3185114 315.4293146 75.01948569 319.125 77 C320.53413139 77.73114527 321.94432489 78.46024648 323.35546875 79.1875 C324.07782715 79.56132813 324.80018555 79.93515625 325.54443359 80.3203125 C329.13307134 82.13806835 332.78565293 83.81392739 336.4375 85.5 C342.76932232 88.43900039 348.91508191 91.59421661 355.015625 94.9921875 C357.55513972 96.33450242 360.07885189 97.39115854 362.75 98.4375 C365.26789099 99.66497186 367.75722186 100.9412012 370.25 102.21875 C372.67370024 103.44873864 372.67370024 103.44873864 374.984375 104.27734375 C379.16412482 106.03071338 383.04675198 108.29032261 387 110.5 C399.71569927 117.5469062 412.49015933 124.44690066 425.57519531 130.7878418 C428.9007145 132.41910646 431.83094757 134.16562778 434.75 136.4375 C436.89733927 137.14264846 436.89733927 137.14264846 438.75 137.4375 C438.75 138.0975 438.75 138.7575 438.75 139.4375 C439.636875 139.705625 440.52375 139.97375 441.4375 140.25 C444.55175259 141.36643017 446.93952727 142.72379712 449.75 144.4375 C451.38221492 145.12303027 453.01490921 145.80750115 454.65234375 146.48046875 C458.28714062 148.13880252 461.72819018 150.15918664 465.19921875 152.1328125 C467.43043502 153.27404716 469.30442193 153.96785737 471.75 154.4375 C471.75 155.0975 471.75 155.7575 471.75 156.4375 C472.48089844 156.54835938 473.21179687 156.65921875 473.96484375 156.7734375 C476.89313073 157.47162654 478.77882199 158.45912339 481.3125 160.0625 C482.17359375 160.59617187 483.0346875 161.12984375 483.921875 161.6796875 C484.85515625 162.25976562 485.7884375 162.83984375 486.75 163.4375 C488.84913269 164.69593527 490.95335882 165.94591197 493.0625 167.1875 C494.02800781 167.75984375 494.99351563 168.3321875 495.98828125 168.921875 C500.54235346 171.42113952 504.60486613 172.71957434 509.75 173.4375 C509.75 174.0975 509.75 174.7575 509.75 175.4375 C510.74 175.4375 511.73 175.4375 512.75 175.4375 C512.75 176.0975 512.75 176.7575 512.75 177.4375 C513.61625 177.705625 514.4825 177.97375 515.375 178.25 C518.66791964 179.40861987 521.66127875 180.81959839 524.75 182.4375 C524.75 183.0975 524.75 183.7575 524.75 184.4375 C525.40226562 184.60765625 526.05453125 184.7778125 526.7265625 184.953125 C532.10936016 186.44570016 536.17462367 188.13897288 540.75 191.4375 C542.40438613 192.13408363 544.07254318 192.79846883 545.75 193.4375 C548.43968216 194.7249209 551.09226994 196.08556439 553.75 197.4375 C555.47805288 198.31469758 557.20724739 199.18964935 558.9375 200.0625 C559.73542969 200.46726562 560.53335937 200.87203125 561.35546875 201.2890625 C563.78337893 202.45350882 566.23960591 203.46544687 568.75 204.4375 C568.75 205.0975 568.75 205.7575 568.75 206.4375 C569.44222656 206.53546875 570.13445312 206.6334375 570.84765625 206.734375 C574.31376721 207.57407887 577.0389214 209.01311138 580.1875 210.6875 C586.03215057 213.7206335 591.91807639 215.99670593 598.16015625 218.1171875 C602.76448554 219.81061873 607.1376299 221.87280632 611.55957031 223.98779297 C615.2399313 225.74481239 618.89585247 227.34659762 622.7421875 228.6953125 C625.39391771 229.67552406 627.96756035 230.81590204 630.5625 231.9375 C635.45147504 234.00448438 640.29638095 235.4570673 645.43359375 236.7578125 C648.19290888 237.56745977 650.2901777 238.96160662 652.75 240.4375 C655.50490549 241.26656247 658.28056396 241.97757889 661.06640625 242.6953125 C663.74196456 243.43527768 666.20832336 244.42822006 668.73828125 245.56640625 C678.56099743 249.81973772 688.71309861 252.57380771 699.05957031 255.19750977 C705.08599524 256.72784987 711.05225786 258.37652138 717 260.1875 C722.2791638 261.78313943 727.49782043 263.09418511 732.95092773 263.94482422 C735.76257674 264.43971368 738.48568085 265.10055427 741.25390625 265.796875 C749.79663694 267.7894154 758.44239863 268.96801108 767.12573242 270.17236328 C769.94342629 270.56332228 772.75984687 270.96259156 775.57617188 271.36328125 C777.39836956 271.62027388 779.22063305 271.87680041 781.04296875 272.1328125 C781.86927292 272.24948273 782.69557709 272.36615295 783.54692078 272.48635864 C793.98749202 273.9300397 804.20234594 274.61259015 814.75 274.67578125 C815.74143981 274.68298502 815.74143981 274.68298502 816.75290871 274.69033432 C821.75193171 274.72618307 826.75086257 274.74183784 831.75 274.75 C832.8461796 274.75238867 832.8461796 274.75238867 833.96450424 274.75482559 C859.27947036 274.80177373 884.57739615 274.7455108 909.19116211 268.03515625 C912.50086266 267.26212439 915.37182952 267.20717019 918.75 267.4375 C918.75 266.7775 918.75 266.1175 918.75 265.4375 C919.61238281 265.27894531 920.47476562 265.12039063 921.36328125 264.95703125 C935.81196603 262.19545581 950.00603889 258.73078232 963.75 253.4375 C965.12185034 252.96982375 966.49690006 252.5114265 967.875 252.0625 C972.36623717 250.57624972 976.84260316 249.04908868 981.3125 247.5 C982.02100098 247.25910645 982.72950195 247.01821289 983.45947266 246.77001953 C987.1008301 245.49997482 990.53547432 244.09398244 993.96484375 242.32421875 C996.86910313 240.82581102 999.51535567 239.79399581 1002.75 239.1875 C1003.513125 239.03796875 1004.27625 238.8884375 1005.0625 238.734375 C1005.619375 238.63640625 1006.17625 238.5384375 1006.75 238.4375 C1006.75 237.7775 1006.75 237.1175 1006.75 236.4375 C1007.28367187 236.20675781 1007.81734375 235.97601562 1008.3671875 235.73828125 C1026.30058726 227.88854052 1042.89538187 217.63879971 1058.97265625 206.50390625 C1060.75 205.4375 1060.75 205.4375 1062.75 205.4375 C1062.75 204.7775 1062.75 204.1175 1062.75 203.4375 C1064.3671875 202.2109375 1064.3671875 202.2109375 1066.625 200.8125 C1079.88410992 192.22092722 1095.89156868 179.72514697 1104.75 166.4375 C1105.41 166.4375 1106.07 166.4375 1106.75 166.4375 C1107.02328125 165.85556885 1107.2965625 165.2736377 1107.578125 164.67407227 C1108.7288338 162.47789657 1110.00047965 160.62323549 1111.5 158.65234375 C1112.28890625 157.60916992 1112.28890625 157.60916992 1113.09375 156.54492188 C1113.6403125 155.82884766 1114.186875 155.11277344 1114.75 154.375 C1115.83400787 152.94712643 1116.91736702 151.51876007 1118 150.08984375 C1118.71929688 149.14612915 1118.71929688 149.14612915 1119.453125 148.18334961 C1120.6017448 146.63708075 1121.6815324 145.0402014 1122.75 143.4375 C1123.74 143.4375 1124.73 143.4375 1125.75 143.4375 C1125.79125 142.468125 1125.8325 141.49875 1125.875 140.5 C1126.47880784 136.14208256 1128.67993341 133.35805954 1131.1953125 129.84375 C1133.27042472 126.63201852 1134.52564336 123.29286745 1135.79296875 119.69921875 C1136.81658737 117.28013638 1138.1473773 115.50577711 1139.75 113.4375 C1139.68935845 140.28106811 1139.61178311 167.12454165 1139.51428509 193.96800232 C1139.46940154 206.43308667 1139.4299698 218.89814293 1139.40356445 231.36328125 C1139.38052403 242.23331747 1139.34705877 253.10326423 1139.30129844 263.97322941 C1139.27744761 269.72385529 1139.25866561 275.474393 1139.25238609 281.22506714 C1139.24629828 286.64890674 1139.22616615 292.072521 1139.19572449 297.49627686 C1139.18700315 299.47621083 1139.18320928 301.45617433 1139.18499184 303.43612671 C1139.19375686 317.67679008 1138.71301946 331.264979 1132.75 344.4375 C1132.24731381 345.84599272 1131.76432162 347.2618765 1131.3125 348.6875 C1128.70802322 356.69183438 1125.72133485 364.56346266 1122.75 372.4375 C1122.09 372.4375 1121.43 372.4375 1120.75 372.4375 C1120.33041016 373.52611328 1120.33041016 373.52611328 1119.90234375 374.63671875 C1111.05322286 396.14458206 1094.38742319 415.51996531 1077.75 431.4375 C1075.27770927 433.88291801 1072.83797578 436.34413795 1070.453125 438.875 C1062.61576267 447.06179887 1053.89099372 453.76785638 1044.75 460.4375 C1044.02941406 460.96553223 1043.30882812 461.49356445 1042.56640625 462.03759766 C1035.01684827 467.5444746 1027.36035156 472.82956563 1019.375 477.6875 C1018.75028809 478.07067383 1018.12557617 478.45384766 1017.48193359 478.84863281 C1014.67771274 480.51322455 1013.0711066 481.4375 1009.75 481.4375 C1009.75 482.0975 1009.75 482.7575 1009.75 483.4375 C1007.10261084 484.8981285 1005.85551666 485.4375 1002.75 485.4375 C1002.75 486.0975 1002.75 486.7575 1002.75 487.4375 C996.56360795 491.28681061 989.17624233 495.4375 981.75 495.4375 C981.75 496.0975 981.75 496.7575 981.75 497.4375 C980.86699219 497.74042969 979.98398438 498.04335938 979.07421875 498.35546875 C977.87410156 498.77441406 976.67398437 499.19335938 975.4375 499.625 C974.26574219 500.03105469 973.09398437 500.43710937 971.88671875 500.85546875 C968.6772129 502.02913276 965.59885145 503.4040955 962.5 504.84375 C956.7915961 507.47239415 950.99055503 509.6714338 945.0625 511.75 C944.08216797 512.10900391 943.10183594 512.46800781 942.09179688 512.83789062 C936.38746481 514.84376761 931.79632526 515.86067104 925.75 515.4375 C925.75 516.0975 925.75 516.7575 925.75 517.4375 C925.11835937 517.54707031 924.48671875 517.65664063 923.8359375 517.76953125 C918.74355931 518.6720709 913.67837152 519.64926561 908.625 520.75 C906.00055761 521.31526452 903.3757276 521.8782657 900.75 522.4375 C899.8331543 522.63279297 898.91630859 522.82808594 897.97167969 523.02929688 C885.42527207 525.67954927 873.02397916 528.05099778 860.24169922 529.16625977 C858.38293216 529.36860057 856.53058218 529.63160863 854.68408203 529.92553711 C842.03146333 531.8362129 829.41543105 531.70542124 816.64160156 531.64331055 C812.75839649 531.62503951 808.87543117 531.62280166 804.9921875 531.62304688 C787.636392 531.5996194 770.70520507 531.07612006 753.5 528.625 C752.2507373 528.45049316 751.00147461 528.27598633 749.71435547 528.09619141 C741.56844875 526.92710779 733.51252289 525.51148704 725.46435547 523.79980469 C720.52462464 522.75560019 715.63870479 521.97924131 710.625 521.375 C705.66137877 520.76720964 701.20600138 519.79516991 696.47265625 518.22265625 C692.94265403 517.20467857 689.3633941 516.57424902 685.75 515.9375 C680.3269827 514.97979136 675.12046928 513.76038009 669.87890625 512.06640625 C666.85161519 511.17210559 663.88396847 510.77814875 660.75 510.4375 C660.75 509.7775 660.75 509.1175 660.75 508.4375 C660.20472656 508.32792969 659.65945313 508.21835937 659.09765625 508.10546875 C655.09078362 507.26299809 651.23434644 506.31234855 647.375 504.9375 C643.20704554 503.48525106 639.07931652 502.70850985 634.71875 502.0625 C627.27716767 500.49585109 620.26372049 497.50040994 613.25 494.625 C607.02479981 492.10189224 600.78923612 489.68531161 594.4375 487.5 C569.62891837 478.94305326 545.59054045 468.36003836 521.75 457.4375 C521.75 456.7775 521.75 456.1175 521.75 455.4375 C520.574375 455.251875 519.39875 455.06625 518.1875 454.875 C510.91037172 453.23032395 504.39511041 449.72194603 497.75 446.4375 C496.47672852 445.81512451 496.47672852 445.81512451 495.17773438 445.18017578 C484.96612948 440.18600557 474.8894743 435.05825342 465.0456543 429.37084961 C460.74043137 426.91096363 456.43153028 424.97213967 451.78515625 423.265625 C448.8317679 422.06386237 446.36751861 420.24067949 443.75 418.4375 C441.44675892 417.3351341 439.12297245 416.38668898 436.75 415.4375 C436.75 414.7775 436.75 414.1175 436.75 413.4375 C435.925 413.375625 435.1 413.31375 434.25 413.25 C430.45760956 412.36962365 428.1320326 410.97580706 424.97265625 408.7890625 C422.64844991 407.37574898 420.25834261 406.35925269 417.75073242 405.31689453 C413.85633965 403.60516753 410.12879212 401.55932552 406.375 399.5625 C405.17617187 398.93021484 405.17617187 398.93021484 403.953125 398.28515625 C399.93468412 396.15889384 395.94090962 393.99592632 391.97265625 391.77734375 C388.87630013 390.04826261 385.75974666 388.41203483 382.5625 386.875 C379.72701969 385.48128934 377.24968737 384.09728741 374.625 382.3125 C371.10733721 380.01837209 367.71148578 378.82402002 363.75 377.4375 C363.09 377.1075 362.43 376.7775 361.75 376.4375 C361.75 375.7775 361.75 375.1175 361.75 374.4375 C361.19892578 374.27169434 360.64785156 374.10588867 360.08007812 373.93505859 C354.45480039 372.16312001 349.41201901 369.8969458 344.25 367.0625 C343.50951416 366.66401855 342.76902832 366.26553711 342.00610352 365.85498047 C338.2060609 363.80395164 334.43840691 361.70214777 330.6875 359.5625 C328.01423305 358.0526471 325.38679879 356.85836426 322.5 355.8125 C318.75 354.4375 318.75 354.4375 316.375 353 C313.05063252 351.02120983 309.57516151 349.75304005 305.95703125 348.40234375 C303.75 347.4375 303.75 347.4375 301.75 345.4375 C300.33087691 344.83012683 298.88909872 344.27504634 297.4375 343.75 C293.15619003 342.1066689 289.24888675 340.11816251 285.25 337.875 C280.59828332 335.30402778 276.32957109 333.57958891 271.2109375 332.24609375 C267.35421524 330.97888501 264.01175615 328.87526598 260.50390625 326.859375 C257.0204749 325.0608374 253.53792272 324.02456551 249.74609375 323.078125 C247.75 322.4375 247.75 322.4375 245.75 320.4375 C244.0981568 319.78695395 242.4180159 319.20721038 240.7265625 318.66796875 C239.71110352 318.33893555 238.69564453 318.00990234 237.64941406 317.67089844 C236.56885742 317.32575195 235.48830078 316.98060547 234.375 316.625 C226.88189559 314.1860507 219.55352272 311.68383914 212.3359375 308.51953125 C208.505471 306.91675297 204.57075835 305.68000399 200.62109375 304.40625 C197.9223547 303.49565506 195.31541312 302.47100168 192.6875 301.375 C187.49989936 299.24091388 182.184087 297.80118723 176.75 296.4375 C176.75 295.7775 176.75 295.1175 176.75 294.4375 C175.93015625 294.30472656 175.1103125 294.17195313 174.265625 294.03515625 C173.18796875 293.85855469 172.1103125 293.68195313 171 293.5 C169.93265625 293.32597656 168.8653125 293.15195312 167.765625 292.97265625 C165.38652407 292.55045829 163.08084789 292.06547116 160.75 291.4375 C160.75 290.7775 160.75 290.1175 160.75 289.4375 C159.83347656 289.33179688 158.91695312 289.22609375 157.97265625 289.1171875 C152.61569065 288.35056174 147.42106149 286.91295126 142.1875 285.5625 C134.17506032 283.51997017 126.17792261 281.59105864 118.06640625 279.98046875 C115.75 279.4375 115.75 279.4375 114.75 278.4375 C113.0094385 278.02205348 111.25655383 277.65797435 109.5 277.31640625 C108.41589844 277.10306641 107.33179688 276.88972656 106.21484375 276.66992188 C105.07144531 276.44884766 103.92804687 276.22777344 102.75 276 C100.52065352 275.56472204 98.29148353 275.12853906 96.0625 274.69140625 C94.98234619 274.48016113 93.90219238 274.26891602 92.78930664 274.05126953 C90.15936308 273.52016839 87.54720139 272.94507664 84.93359375 272.33984375 C80.89948065 271.42842621 76.92514046 270.89041616 72.8125 270.4375 C72.0908667 270.35701416 71.3692334 270.27652832 70.62573242 270.19360352 C69.10551962 270.02443624 67.58508818 269.85722315 66.06445312 269.69189453 C63.75533586 269.43808649 61.44795002 269.17192307 59.140625 268.90234375 C57.61460416 268.72638175 56.08856306 268.55059545 54.5625 268.375 C53.88775635 268.29572266 53.2130127 268.21644531 52.51782227 268.13476562 C39.01339887 266.61169833 25.63574444 266.27048325 12.0625 266.3125 C11.14068939 266.31438324 10.21887878 266.31626648 9.26913452 266.31820679 C-42.43881933 265.62574361 -42.43881933 265.62574361 -93.12109375 274.30859375 C-97.48008557 275.53856206 -101.84600183 276.30757453 -106.32421875 276.97265625 C-116.06028851 278.29302219 -116.06028851 278.29302219 -125.25 281.4375 C-126.62208615 281.5912192 -127.99801112 281.71174472 -129.375 281.8125 C-133.18778729 282.20588282 -136.40451912 283.09917018 -139.97265625 284.5546875 C-144.95650394 286.48667648 -150.13569876 287.89334094 -155.25 289.4375 C-159.58706256 290.75898756 -163.92085916 292.09028039 -168.25 293.4375 C-169.4875 293.82228516 -169.4875 293.82228516 -170.75 294.21484375 C-175.28510629 295.67143171 -179.58952055 297.41770518 -183.921875 299.39453125 C-199.64325843 306.4375 -199.64325843 306.4375 -206.25 306.4375 C-206.25 307.0975 -206.25 307.7575 -206.25 308.4375 C-209.57916008 309.78144372 -212.91331336 311.11235873 -216.25 312.4375 C-216.98734375 312.73398437 -217.7246875 313.03046875 -218.484375 313.3359375 C-222.39289414 314.8660167 -226.08325239 315.91665655 -230.25 316.4375 C-230.25 317.0975 -230.25 317.7575 -230.25 318.4375 C-231.07242187 318.74042969 -231.89484375 319.04335938 -232.7421875 319.35546875 C-239.82079144 322.0119887 -246.54696934 324.95486122 -253.25 328.4375 C-255.08310335 329.33380385 -256.91645251 330.22960507 -258.75 331.125 C-267.06793172 335.28396586 -275.14750557 339.87757212 -283.25 344.4375 C-283.97364746 344.84468262 -284.69729492 345.25186523 -285.44287109 345.67138672 C-289.56251035 347.99019231 -289.56251035 347.99019231 -293.68017578 350.3125 C-298.36186077 352.95193443 -303.07524823 355.52664962 -307.8203125 358.05078125 C-309.64055311 359.08966455 -311.41138689 360.21592621 -313.15234375 361.3828125 C-316.25483908 363.44070978 -319.41992777 365.21803776 -322.6875 367 C-328.75660447 370.38386201 -334.30035424 374.26459136 -339.84887695 378.4375 C-343.43663628 381.13007247 -347.0503301 383.64635699 -350.875 386 C-356.7649002 389.65940545 -362.17156333 393.87847004 -367.61474609 398.15673828 C-370.20696365 400.18701199 -372.82365198 402.18519378 -375.4375 404.1875 C-376.51711618 405.02058834 -377.59653653 405.85393051 -378.67578125 406.6875 C-381.28705426 408.70243974 -383.91280502 410.69729434 -386.54296875 412.6875 C-396.12097342 419.97987956 -405.04960058 427.66411778 -413.73291016 435.99707031 C-415.63211519 437.80030651 -417.58315657 439.53535918 -419.5625 441.25 C-420.1709375 441.77722656 -420.779375 442.30445313 -421.40625 442.84765625 C-422.69702209 443.96067371 -423.98877098 445.0725589 -425.28125 446.18359375 C-434.71298783 454.46866483 -443.41431914 463.52892102 -452.25 472.4375 C-454.75991644 474.95812732 -457.27832543 477.46505292 -459.828125 479.9453125 C-465.49595452 485.49713382 -470.6110476 491.13216371 -475.47265625 497.41796875 C-476.05917969 498.08441406 -476.64570313 498.75085938 -477.25 499.4375 C-477.91 499.4375 -478.57 499.4375 -479.25 499.4375 C-479.47816406 499.97632813 -479.70632813 500.51515625 -479.94140625 501.0703125 C-481.6464862 504.15472578 -483.8806145 506.67269488 -486.1875 509.3125 C-491.55925549 515.56318964 -496.68116817 521.97572986 -501.73291016 528.48632812 C-503.37206122 530.59448637 -505.01954925 532.69595721 -506.66796875 534.796875 C-517.81242975 549.02157091 -528.38274602 563.37426813 -538.08544922 578.62402344 C-539.56071019 580.92134808 -541.08799676 583.18113207 -542.625 585.4375 C-545.43683166 589.63114607 -547.86150518 593.99224576 -550.25 598.4375 C-551.16543443 600.12566878 -552.08217978 601.81312713 -553 603.5 C-553.49371094 604.41007812 -553.98742187 605.32015625 -554.49609375 606.2578125 C-555.84451648 608.70239179 -557.21163794 611.13151641 -558.59765625 613.5546875 C-559.00467773 614.26874756 -559.41169922 614.98280762 -559.83105469 615.71850586 C-560.63884654 617.13310249 -561.45056806 618.54546389 -562.26660156 619.95532227 C-564.05759386 623.09653667 -565.48841389 625.90554153 -566.25 629.4375 C-566.91 629.4375 -567.57 629.4375 -568.25 629.4375 C-568.43949219 630.50871094 -568.43949219 630.50871094 -568.6328125 631.6015625 C-570.20027887 638.80397128 -573.26341137 645.71767557 -576.25 652.4375 C-576.58 652.4375 -576.91 652.4375 -577.25 652.4375 C-577.31876641 612.742161 -577.37157961 573.0468298 -577.40319599 533.35144306 C-577.40694781 528.65796064 -577.41083081 523.96447834 -577.41479492 519.27099609 C-577.41558185 518.33666464 -577.41636878 517.40233319 -577.41717956 516.43968867 C-577.43020983 501.33955821 -577.45385047 486.23946225 -577.48145839 471.13935222 C-577.50957896 455.62871724 -577.52619028 440.11810025 -577.53226548 424.60744083 C-577.53636817 415.04759402 -577.54929472 405.48784474 -577.5737494 395.92802797 C-577.58968884 389.35974476 -577.59438192 382.79151147 -577.59050413 376.22321035 C-577.58859526 372.4417661 -577.59138233 368.66049148 -577.60761642 364.87907791 C-577.68350455 346.28379115 -577.57601878 328.15571362 -571.25 310.4375 C-570.86328125 309.28636719 -570.4765625 308.13523437 -570.078125 306.94921875 C-564.48651804 290.80814048 -556.30326872 276.19660502 -546.25 262.4375 C-545.16509617 260.83439505 -544.08169712 259.23027042 -543 257.625 C-528.35416506 236.76987099 -510.51628656 217.71221304 -492.625 199.625 C-491.92528076 198.912229 -491.22556152 198.19945801 -490.50463867 197.46508789 C-489.85084229 196.81016357 -489.1970459 196.15523926 -488.5234375 195.48046875 C-487.93997559 194.89289795 -487.35651367 194.30532715 -486.75537109 193.69995117 C-485.25 192.4375 -485.25 192.4375 -483.25 192.4375 C-483.0025 191.81875 -482.755 191.2 -482.5 190.5625 C-481.04371361 188.08681313 -479.87187494 187.48624998 -477.25 186.4375 C-477.25 185.7775 -477.25 185.1175 -477.25 184.4375 C-475.9921875 183.1328125 -475.9921875 183.1328125 -474.125 181.5625 C-473.3928125 180.93988281 -472.660625 180.31726563 -471.90625 179.67578125 C-471.0296875 178.93714844 -470.153125 178.19851563 -469.25 177.4375 C-467.62828978 176.04961053 -466.00966367 174.65817428 -464.39111328 173.26660156 C-462.58391894 171.71472276 -460.77251399 170.16785348 -458.9609375 168.62109375 C-456.53471549 166.5462863 -454.12433708 164.45525856 -451.7265625 162.34765625 C-444.9744006 156.4367908 -438.06483192 151.01775019 -430.70703125 145.8828125 C-427.18487094 143.41660361 -423.77250592 140.8218662 -420.375 138.1875 C-419.83544678 137.76960205 -419.29589355 137.3517041 -418.73999023 136.92114258 C-417.24296387 135.76039634 -415.74646714 134.59896712 -414.25 133.4375 C-412.75341389 132.28721132 -411.25395367 131.14063902 -409.75 130 C-409.1828125 129.56816406 -408.615625 129.13632812 -408.03125 128.69140625 C-406.25 127.4375 -406.25 127.4375 -403.87890625 126.03515625 C-400.01004522 123.6839465 -396.47756656 120.91080283 -392.87109375 118.1796875 C-390.25 116.4375 -390.25 116.4375 -388.16015625 115.9453125 C-386.09017739 115.56702272 -386.09017739 115.56702272 -384.53515625 113.7109375 C-381.30805993 110.50039039 -377.5787863 108.3914494 -373.6875 106.0625 C-372.93919922 105.60617187 -372.19089844 105.14984375 -371.41992188 104.6796875 C-365.46336115 101.07639843 -359.37443197 97.74482843 -353.25 94.4375 C-351.2469086 93.34203628 -349.2443133 92.24566499 -347.2421875 91.1484375 C-345.20322451 90.03627587 -343.1641615 88.92429761 -341.125 87.8125 C-340.10535156 87.25304687 -339.08570313 86.69359375 -338.03515625 86.1171875 C-321.80497809 77.28330362 -321.80497809 77.28330362 -315.25 76.4375 C-315.25 75.7775 -315.25 75.1175 -315.25 74.4375 C-314.08984375 73.92960938 -312.9296875 73.42171875 -311.734375 72.8984375 C-301.23603121 68.28724568 -301.23603121 68.28724568 -290.9375 63.25 C-275.59075342 55.4375 -275.59075342 55.4375 -268.25 55.4375 C-268.25 54.7775 -268.25 54.1175 -268.25 53.4375 C-267.32058594 53.11136719 -266.39117187 52.78523437 -265.43359375 52.44921875 C-258.01553243 49.85800826 -258.01553243 49.85800826 -250.75 46.875 C-247.37171367 45.48748954 -244.08230145 44.52593529 -240.5625 43.5625 C-235.97467229 42.29455605 -231.66724715 40.85594267 -227.3125 38.9375 C-221.61104122 36.45166397 -215.8380524 34.91752079 -209.81640625 33.3984375 C-206.80771245 32.58777082 -204.01592554 31.64537462 -201.125 30.5 C-194.94567824 28.14465314 -188.55998805 26.77132722 -182.12890625 25.29101562 C-177.24315754 24.16273891 -172.42619233 22.95545579 -167.625 21.5 C-152.19452188 16.97568818 -136.25782244 13.61220741 -120.3371582 11.37475586 C-116.94795611 10.89576545 -113.67605768 10.32529105 -110.3671875 9.44140625 C-104.60088653 7.94361115 -98.72335453 7.42031726 -92.81347656 6.7644043 C-86.67813839 6.07975442 -80.56378564 5.35385289 -74.45323181 4.47738647 C-49.60511602 0.94795156 -25.0561163 -0.03485473 0 0 Z " fill="#040403" transform="translate(734.25,478.5625)"/>
<path d="M0 0 C3.49220147 0.00860209 6.98280793 -0.02057281 10.47485352 -0.05200195 C23.59823175 -0.09211673 35.37725668 1.03209389 48.03149414 4.44604492 C50.73397211 5.04064008 53.44408505 5.5849115 56.15649414 6.13354492 C73.32633791 9.96671894 91.26023856 16.85060206 106.03149414 26.44604492 C107.36209621 27.26042026 108.69544413 28.07032606 110.03149414 28.87573242 C117.23205199 33.26102792 123.90338991 37.61175391 130.03149414 43.44604492 C131.32134642 44.53153789 132.61308341 45.61479445 133.90649414 46.69604492 C151.29776673 61.97308437 167.66950868 84.82619032 170.03149414 108.44604492 C170.52456055 109.86723633 170.52456055 109.86723633 171.02758789 111.31713867 C175.75460405 127.43080296 172.57448907 146.95925302 167.03149414 162.44604492 C166.55776367 164.23268555 166.55776367 164.23268555 166.07446289 166.05541992 C165.0038581 169.53588792 163.61356252 172.22084212 161.71899414 175.32104492 C159.62563925 178.78000352 157.61588815 182.21945082 155.78149414 185.82104492 C150.06196433 196.13862811 141.87909041 204.91504571 133.44946289 213.05932617 C131.48731954 214.99611065 129.74731813 216.92257763 128.03149414 219.07104492 C124.01973202 223.90129874 118.93098634 227.56672096 114.03149414 231.44604492 C113.21422852 232.12924805 112.39696289 232.81245117 111.55493164 233.51635742 C105.99064724 238.13815717 100.15011425 241.95036766 93.91430664 245.58666992 C91.2176698 247.32596414 89.27087542 249.17732677 87.03149414 251.44604492 C84.28149414 252.19604492 84.28149414 252.19604492 82.03149414 252.44604492 C82.03149414 253.10604492 82.03149414 253.76604492 82.03149414 254.44604492 C80.26393888 255.28630888 78.49232151 256.11803214 76.71899414 256.94604492 C75.73286133 257.41010742 74.74672852 257.87416992 73.73071289 258.35229492 C71.03149414 259.44604492 71.03149414 259.44604492 68.03149414 259.44604492 C68.03149414 260.10604492 68.03149414 260.76604492 68.03149414 261.44604492 C66.71149414 261.77604492 65.39149414 262.10604492 64.03149414 262.44604492 C64.03149414 263.10604492 64.03149414 263.76604492 64.03149414 264.44604492 C63.4140332 264.68838867 62.79657227 264.93073242 62.16040039 265.18041992 C58.05057772 266.80683376 53.97473466 268.45169935 49.96899414 270.32104492 C44.76592112 272.67927226 39.37111687 274.49284028 33.97070312 276.34008789 C29.82119508 277.76232847 29.82119508 277.76232847 25.83227539 279.57104492 C23.57711494 280.66682787 21.50969107 280.9596412 19.03149414 281.32104492 C15.00376233 281.98872885 11.34247882 282.95991073 7.50805664 284.35229492 C0.90094693 286.60328151 -5.72514853 287.89272628 -12.59350586 289.07104492 C-14.89830074 289.47929334 -17.2029901 289.88813794 -19.50756836 290.29760742 C-20.60987793 290.49080566 -21.7121875 290.68400391 -22.84790039 290.88305664 C-25.61626554 291.38249726 -28.36993515 291.92436142 -31.12475586 292.49291992 C-82.28198641 302.79020281 -142.56903388 298.92467942 -192.70678711 284.36010742 C-197.44622281 283.03193023 -202.25561746 282.38363338 -207.12084961 281.6784668 C-211.87531217 280.94042415 -216.23316377 279.7828676 -220.77075195 278.18896484 C-224.24115024 277.01584532 -227.78853977 276.19498395 -231.34350586 275.32104492 C-243.10330732 272.33484815 -254.54035488 268.37027906 -266.01538086 264.45141602 C-269.36646555 263.31056228 -272.72462589 262.1923256 -276.08618164 261.08276367 C-279.41302034 259.95742057 -282.69051923 258.70465754 -285.96850586 257.44604492 C-286.97139648 257.06319336 -287.97428711 256.6803418 -289.00756836 256.28588867 C-294.04360623 254.35756972 -299.05961314 252.41047085 -304.03100586 250.32104492 C-307.67171453 248.84108205 -311.26652701 247.83693111 -315.09350586 246.94604492 C-319.38553242 245.93295236 -322.88814218 244.63943951 -326.73803711 242.53588867 C-329.59403088 241.1404031 -332.52320686 240.16084469 -335.53100586 239.13354492 C-342.07960398 236.85913934 -348.25146286 234.09776745 -354.49584961 231.09448242 C-359.22578407 228.84922669 -363.93104389 226.66530466 -368.96850586 225.19604492 C-374.01710106 223.56802452 -378.73613008 221.27895391 -383.51367188 219.00048828 C-386.77216788 217.45217751 -390.00841794 215.97388764 -393.40600586 214.75854492 C-396.00360763 213.80153374 -398.22958366 212.83940198 -400.65600586 211.57104492 C-405.26287174 209.19477616 -410.07780603 207.43268034 -414.92163086 205.60229492 C-421.13260603 203.24530947 -427.04943739 200.45750081 -432.96850586 197.44604492 C-432.84741211 195.70385742 -432.84741211 195.70385742 -431.96850586 193.44604492 C-429.96505663 191.89751424 -428.06596916 190.61195707 -425.90600586 189.32104492 C-425.28185791 188.93416504 -424.65770996 188.54728516 -424.01464844 188.14868164 C-422.68269919 187.32416523 -421.34754752 186.50480351 -420.00952148 185.69018555 C-416.70802601 183.677695 -413.43397005 181.62154897 -410.15600586 179.57104492 C-409.49205811 179.15773926 -408.82811035 178.74443359 -408.14404297 178.31860352 C-403.21725485 175.24725171 -398.3360253 172.11032232 -393.46850586 168.94604492 C-387.67521768 165.18637109 -381.870272 161.44650248 -376.03100586 157.75854492 C-375.01006836 157.10692383 -375.01006836 157.10692383 -373.96850586 156.44213867 C-369.20021287 153.44604492 -369.20021287 153.44604492 -366.96850586 153.44604492 C-366.63850586 152.45604492 -366.30850586 151.46604492 -365.96850586 150.44604492 C-364.21850586 149.27026367 -364.21850586 149.27026367 -361.96850586 148.13354492 C-357.89150061 146.05864047 -354.16864955 143.61088323 -350.3815918 141.05810547 C-346.50039184 138.46527227 -342.54622912 135.99041159 -338.59350586 133.50854492 C-337.02306129 132.52047355 -335.45275009 131.53219017 -333.88256836 130.54370117 C-333.08206055 130.0402417 -332.28155273 129.53678223 -331.45678711 129.01806641 C-328.88365115 127.39243626 -326.32074944 125.75138077 -323.75756836 124.11010742 C-317.74339409 120.27969511 -311.65855837 116.5687725 -305.56030273 112.87451172 C-303.70581768 111.750857 -301.8527188 110.62494191 -299.99975586 109.4987793 C-294.3617743 106.07627012 -288.71822126 102.67795921 -282.96850586 99.44604492 C-281.8947168 98.83245117 -280.82092773 98.21885742 -279.71459961 97.58666992 C-278.62276367 96.96276367 -277.53092773 96.33885742 -276.40600586 95.69604492 C-275.80522217 95.3524292 -275.20443848 95.00881348 -274.58544922 94.65478516 C-271.55184602 92.92011246 -268.51660156 91.1885179 -265.47631836 89.46557617 C-260.09208723 86.40718638 -254.74056136 83.3209064 -249.45996094 80.08642578 C-243.53517306 76.46645401 -237.5421591 73.07745567 -231.34350586 69.94604492 C-230.34891357 69.43847656 -230.34891357 69.43847656 -229.33422852 68.9206543 C-225.90482169 67.22221442 -222.76911647 65.97026707 -218.96850586 65.44604492 C-218.96850586 64.78604492 -218.96850586 64.12604492 -218.96850586 63.44604492 C-215.00945437 61.1171911 -211.24210249 59.13299096 -206.96850586 57.44604492 C-206.20924805 56.98713867 -205.44999023 56.52823242 -204.66772461 56.05541992 C-201.96968027 54.44674515 -199.25554729 53.07829081 -196.40600586 51.75854492 C-195.4765918 51.32155273 -194.54717773 50.88456055 -193.58959961 50.43432617 C-190.96850586 49.44604492 -190.96850586 49.44604492 -186.96850586 49.44604492 C-186.96850586 48.78604492 -186.96850586 48.12604492 -186.96850586 47.44604492 C-180.82152566 44.50278745 -174.61906007 41.89774439 -168.21850586 39.57104492 C-162.91778764 37.6418656 -157.85488205 35.49268803 -152.78100586 33.00854492 C-146.59164817 29.99579398 -140.24656746 27.68345326 -133.71850586 25.50854492 C-132.80045166 25.20182861 -131.88239746 24.8951123 -130.93652344 24.57910156 C-124.37398091 22.44604492 -124.37398091 22.44604492 -120.96850586 22.44604492 C-120.96850586 21.78604492 -120.96850586 21.12604492 -120.96850586 20.44604492 C-119.75614258 20.24688477 -119.75614258 20.24688477 -118.51928711 20.04370117 C-117.4506543 19.86709961 -116.38202148 19.69049805 -115.28100586 19.50854492 C-114.22526367 19.33452148 -113.16952148 19.16049805 -112.08178711 18.98120117 C-109.36600982 18.51437371 -106.66726351 18.00181876 -103.96850586 17.44604492 C-103.96850586 16.78604492 -103.96850586 16.12604492 -103.96850586 15.44604492 C-102.92694336 15.20370117 -101.88538086 14.96135742 -100.81225586 14.71166992 C-99.36428984 14.37333939 -97.91637745 14.03477931 -96.46850586 13.69604492 C-95.69531006 13.51557617 -94.92211426 13.33510742 -94.12548828 13.14916992 C-90.42352843 12.27980742 -86.72866164 11.39610513 -83.05053711 10.43041992 C-55.83438807 3.32319758 -28.11395523 -0.10529571 0 0 Z " fill="#040403" transform="translate(1683.968505859375,323.553955078125)"/>
<path d="M0 0 C2.89436373 0.00463358 5.78830736 -0.00232307 8.68261719 -0.02050781 C27.68321866 -0.13891068 46.1177105 0.69411685 64.97167969 3.31567383 C64.97167969 3.64567383 64.97167969 3.97567383 64.97167969 4.31567383 C64.22563477 4.28538086 63.47958984 4.25508789 62.7109375 4.22387695 C41.52815829 3.40552293 20.35688248 3.2050226 -0.84082031 3.19067383 C-2.11993286 3.18817627 -3.39904541 3.18567871 -4.71691895 3.18310547 C-17.30415128 3.16295364 -29.87713695 3.20514886 -42.45410156 3.75708008 C-43.33781937 3.79529877 -44.22153717 3.83351746 -45.1320343 3.87289429 C-50.46638497 4.1402483 -55.59442267 4.76557095 -60.82128906 5.90551758 C-64.25729695 6.54406772 -67.54414901 6.44715199 -71.02832031 6.31567383 C-71.02832031 5.98567383 -71.02832031 5.65567383 -71.02832031 5.31567383 C-47.57745181 0.47711774 -23.86338409 -0.04137199 0 0 Z " fill="#545451" transform="translate(730.0283203125,893.684326171875)"/>
<path d="M0 0 C2.87526069 0.1416533 5.75013536 0.28818532 8.625 0.4375 C9.43324219 0.47681641 10.24148438 0.51613281 11.07421875 0.55664062 C12.26337891 0.61948242 12.26337891 0.61948242 13.4765625 0.68359375 C14.5605835 0.73858032 14.5605835 0.73858032 15.66650391 0.79467773 C18 1 18 1 20.60546875 1.50927734 C25.35475078 2.19584645 30.04312227 2.1622776 34.8359375 2.16796875 C35.89614105 2.17202225 36.9563446 2.17607574 38.04867554 2.18025208 C41.49081431 2.18970962 44.93284998 2.18964769 48.375 2.1875 C49.54228638 2.1882251 50.70957275 2.1889502 51.91223145 2.18969727 C69.74737532 2.1884706 87.40256105 1.60685258 105.17773438 0.1875 C108.79868695 -0.05306156 112.37283365 -0.07147126 116 0 C116 0.33 116 0.66 116 1 C114.87980469 1.13277344 113.75960937 1.26554687 112.60546875 1.40234375 C111.13279271 1.58056569 109.66013753 1.75896011 108.1875 1.9375 C107.08051758 2.06801758 107.08051758 2.06801758 105.95117188 2.20117188 C102.83266879 2.58216546 99.98891878 3.00369374 97 4 C85.49600075 5.2836169 73.87254213 5.18624562 62.3137207 5.18530273 C59.33465147 5.18748378 56.35595706 5.2056974 53.37695312 5.22460938 C40.79657281 5.26127739 28.48470294 4.52962492 16 3 C14.77052139 2.85186859 14.77052139 2.85186859 13.51620483 2.70074463 C9.00775521 2.15613718 4.50264329 1.59112915 0 1 C0 0.67 0 0.34 0 0 Z " fill="#636562" transform="translate(364,1418)"/>
<path d="M0 0 C0 2 0 2 -2.3125 4.375 C-3.199375 5.24125 -4.08625 6.1075 -5 7 C-5.53625 7.763125 -6.0725 8.52625 -6.625 9.3125 C-7.07875 9.869375 -7.5325 10.42625 -8 11 C-8.99 11 -9.98 11 -11 11 C-8.22920113 14.80984844 -4.37131855 15.06840752 0 16 C0 16.66 0 17.32 0 18 C0.66 18 1.32 18 2 18 C2 17.34 2 16.68 2 16 C4.97 16 7.94 16 11 16 C10.01 17.98 9.02 19.96 8 22 C9.32 21.67 10.64 21.34 12 21 C12.33 21.66 12.66 22.32 13 23 C14.65 23 16.3 23 18 23 C17.67 24.32 17.34 25.64 17 27 C10.54602763 25.27800737 4.57918496 23.04566968 -1.45703125 20.18359375 C-3.13527586 19.40247529 -4.83542093 18.66659807 -6.5546875 17.98046875 C-8.87698422 17.04932422 -11.08322716 16.00852856 -13.3125 14.875 C-14.35857422 14.34519531 -14.35857422 14.34519531 -15.42578125 13.8046875 C-15.94527344 13.53914062 -16.46476562 13.27359375 -17 13 C-16.39888848 9.37133314 -16.08248257 9.0629829 -12.91015625 6.640625 C-11.63534167 5.83142948 -10.35239602 5.03493177 -9.0625 4.25 C-8.41603516 3.83878906 -7.76957031 3.42757813 -7.10351562 3.00390625 C-2.2982636 0 -2.2982636 0 0 0 Z " fill="#515250" transform="translate(1268,508)"/>
<path d="M0 0 C0.6388765 0.02996567 1.27775299 0.05993134 1.93598938 0.09080505 C20.96405147 0.95512106 39.94226085 1.12791105 58.98547363 1.06866455 C62.7279399 1.05818755 66.47041373 1.05381638 70.21289062 1.04882812 C77.47527991 1.03830011 84.73763364 1.02137801 92 1 C84.38586684 5.34372644 73.95857161 4.16695915 65.4296875 4.203125 C63.81068039 4.21167511 63.81068039 4.21167511 62.15896606 4.22039795 C59.88154053 4.22978939 57.60410176 4.23635843 55.32666016 4.24023438 C51.9323579 4.24983772 48.53868934 4.28087587 45.14453125 4.3125 C29.89473009 4.3839432 15.08945132 3.19200621 0 1 C0 0.67 0 0.34 0 0 Z " fill="#41423F" transform="translate(1544,616)"/>
<path d="M0 0 C0.33 0.99 0.66 1.98 1 3 C0.36908447 3.62567871 -0.26183105 4.25135742 -0.91186523 4.89599609 C-3.24899635 7.21609619 -5.58386778 9.53842292 -7.91723633 11.86230469 C-8.92805585 12.86809203 -9.93977062 13.87298048 -10.95239258 14.87695312 C-12.40681856 16.31926483 -13.85800615 17.76476672 -15.30859375 19.2109375 C-16.62041626 20.51490479 -16.62041626 20.51490479 -17.95874023 21.84521484 C-20.03506773 23.82809002 -20.03506773 23.82809002 -21 26 C-21.66 26 -22.32 26 -23 26 C-23.33 26.66 -23.66 27.32 -24 28 C-24.99 27.34 -25.98 26.68 -27 26 C-26.0479279 24.99403703 -25.08812654 23.99538437 -24.125 23 C-23.59132813 22.443125 -23.05765625 21.88625 -22.5078125 21.3125 C-21 20 -21 20 -19 20 C-18.76667969 19.44054688 -18.53335937 18.88109375 -18.29296875 18.3046875 C-14.21590852 11.03742001 -6.37224526 5.26402869 0 0 Z " fill="#3A3B38" transform="translate(328,1074)"/>
<path d="M0 0 C1.65 0 3.3 0 5 0 C5 0.66 5 1.32 5 2 C5.66 2 6.32 2 7 2 C7 1.34 7 0.68 7 0 C9.97 0 12.94 0 16 0 C15.01 1.98 14.02 3.96 13 6 C14.32 5.67 15.64 5.34 17 5 C17.33 5.66 17.66 6.32 18 7 C19.65 7 21.3 7 23 7 C22.67 8.32 22.34 9.64 22 11 C14.78210098 9.07418313 7.45251855 6.84106367 1 3 C0.67 2.01 0.34 1.02 0 0 Z " fill="#262828" transform="translate(1263,524)"/>
<path d="M0 0 C0.33 0 0.66 0 1 0 C1 17.82 1 35.64 1 54 C0.67 54 0.34 54 0 54 C0 38.82 0 23.64 0 8 C-1.65 8.66 -3.3 9.32 -5 10 C-4.67 11.32 -4.34 12.64 -4 14 C-4.66 14 -5.32 14 -6 14 C-6 14.66 -6 15.32 -6 16 C-6.66 15.67 -7.32 15.34 -8 15 C-5.25 8.25 -5.25 8.25 -3 6 C-2.31246699 4.34183216 -1.64438717 2.67540664 -1 1 C-0.67 0.67 -0.34 0.34 0 0 Z " fill="#212120" transform="translate(1872,977)"/>
<path d="M0 0 C0.66 0.33 1.32 0.66 2 1 C-0.36485327 3.59278008 -2.74361857 6.17239988 -5.125 8.75 C-5.79015625 9.47960937 -6.4553125 10.20921875 -7.140625 10.9609375 C-10.85854225 14.9704561 -14.3527247 18.13282138 -19 21 C-20.299375 22.299375 -20.299375 22.299375 -21.625 23.625 C-23.78237042 25.78237042 -25.29328547 26.75513973 -28 28 C-20.94975689 19.63371151 -20.94975689 19.63371151 -18 17 C-17.34 17 -16.68 17 -16 17 C-15.7525 16.38125 -15.505 15.7625 -15.25 15.125 C-13.79371361 12.64931313 -12.62187494 12.04874998 -10 11 C-10 10.34 -10 9.68 -10 9 C-8.3203125 7.34375 -8.3203125 7.34375 -6.125 5.5 C-4.00964496 3.71066742 -1.95980876 1.95980876 0 0 Z " fill="#3D3F3C" transform="translate(267,654)"/>
<path d="M0 0 C0.33 0.99 0.66 1.98 1 3 C-0.375 4.5 -0.375 4.5 -2 6 C-2.66 6 -3.32 6 -4 6 C-4.38285156 6.88945313 -4.38285156 6.88945313 -4.7734375 7.796875 C-6.11816498 10.21224538 -7.49214367 11.51211706 -9.625 13.25 C-10.25664063 13.77078125 -10.88828125 14.2915625 -11.5390625 14.828125 C-12.02117187 15.21484375 -12.50328125 15.6015625 -13 16 C-12.67 17.32 -12.34 18.64 -12 20 C-15.3 20 -18.6 20 -22 20 C-18.15396498 16.03697532 -14.09319312 12.43604303 -9.875 8.875 C-8.64224083 7.83189608 -7.41043649 6.78766245 -6.1796875 5.7421875 C-5.64069824 5.2869873 -5.10170898 4.83178711 -4.54638672 4.36279297 C-2.96354192 2.96787038 -1.4759236 1.50693738 0 0 Z " fill="#292B28" transform="translate(1827,658)"/>
<path d="M0 0 C4 1.33333333 8 2.66666667 12 4 C12 4.99 12 5.98 12 7 C5.5 11 5.5 11 1 11 C2.875 7.125 2.875 7.125 4 6 C3.34 5.34 2.68 4.68 2 4 C1.30251417 2.68252676 0.63040043 1.35085807 0 0 Z " fill="#0E0E0C" transform="translate(770,1285)"/>
<path d="M0 0 C-5.625 4 -5.625 4 -9 4 C-9 4.66 -9 5.32 -9 6 C-12.07322544 6.91058531 -14.80097361 7.08886184 -18 7 C-18.33 7.99 -18.66 8.98 -19 10 C-23.455 10.495 -23.455 10.495 -28 11 C-25.50775755 9.33850504 -23.35299016 8.22166306 -20.625 7.0625 C-18.10084789 5.96680696 -15.83807968 4.8987998 -13.5 3.4375 C-4.02325581 -2.01162791 -4.02325581 -2.01162791 0 0 Z " fill="#4B4C49" transform="translate(460,537)"/>
<path d="M0 0 C0.66 0.33 1.32 0.66 2 1 C-1.33151098 4.7122551 -3.18021262 6.08814833 -8 7 C-9.18330183 8.86644906 -9.18330183 8.86644906 -10 11 C-11.4375 12.75 -11.4375 12.75 -13 14 C-13.99 14 -14.98 14 -16 14 C-17.68798827 15.43750191 -17.68798827 15.43750191 -19 17 C-19.66 16.67 -20.32 16.34 -21 16 C-14.50656541 9.89891795 -7.37203535 4.95589572 0 0 Z " fill="#3E403D" transform="translate(420,998)"/>
<path d="M0 0 C0.66 0.33 1.32 0.66 2 1 C0.71937515 2.7074998 -0.61767557 4.37373596 -2 6 C-2.66 6 -3.32 6 -4 6 C-6.21421421 8.56018518 -8.12200625 11.18300938 -10 14 C-10 13.34 -10 12.68 -10 12 C-10.7425 12.45375 -11.485 12.9075 -12.25 13.375 C-14.46930578 14.68640796 -16.67967822 15.88280803 -19 17 C-14.98072239 11.68418122 -10.31918615 7.97255675 -5 4 C-3.33001351 2.67082708 -1.66142513 1.33985898 0 0 Z " fill="#3F4140" transform="translate(389,1021)"/>
<path d="M0 0 C0.33 0.66 0.66 1.32 1 2 C0.67 2.66 0.34 3.32 0 4 C0.66 4.33 1.32 4.66 2 5 C1.278125 5.226875 0.55625 5.45375 -0.1875 5.6875 C-3.58568303 7.27331875 -5.45230999 9.26123324 -8 12 C-9.66666667 13.66666667 -11.33333333 15.33333333 -13 17 C-13.66 16.67 -14.32 16.34 -15 16 C-10.23991693 10.4069024 -5.25404324 5.13122145 0 0 Z " fill="#2A2C28" transform="translate(297,1105)"/>
<path d="M0 0 C0.66 0.99 1.32 1.98 2 3 C1.25556641 3.63615234 1.25556641 3.63615234 0.49609375 4.28515625 C-4.20321342 8.34243284 -8.67153988 12.54980194 -13 17 C-13.66 16.67 -14.32 16.34 -15 16 C-10.13036358 10.52436438 -5.24944351 5.1148424 0 0 Z " fill="#C8C8C8" transform="translate(1827,526)"/>
<path d="M0 0 C0.66 0.99 1.32 1.98 2 3 C-0.67140496 8.34280992 -6.47244797 12.20311919 -11 16 C-11 12.03990775 -9.59219817 10.85479241 -7.125 7.8125 C-6.40570313 6.91144531 -5.68640625 6.01039062 -4.9453125 5.08203125 C-4.30335938 4.39496094 -3.66140625 3.70789062 -3 3 C-2.34 3 -1.68 3 -1 3 C-0.67 2.01 -0.34 1.02 0 0 Z " fill="#3E403F" transform="translate(270,1134)"/>
<path d="M0 0 C0.80859375 1.640625 0.80859375 1.640625 1 4 C-0.58570661 6.12217932 -2.09290258 7.8833556 -3.9375 9.75 C-4.41896484 10.25660156 -4.90042969 10.76320313 -5.39648438 11.28515625 C-6.58653954 12.53412504 -7.79186613 13.7685103 -9 15 C-9.99 14.67 -10.98 14.34 -12 14 C-11.38511719 13.32453125 -10.77023438 12.6490625 -10.13671875 11.953125 C-9.32847656 11.06109375 -8.52023438 10.1690625 -7.6875 9.25 C-6.88699219 8.36828125 -6.08648437 7.4865625 -5.26171875 6.578125 C-3.39083089 4.44550672 -1.65915714 2.29812057 0 0 Z " fill="#3F423F" transform="translate(227,693)"/>
<path d="M0 0 C0 3 0 3 -1.46875 4.80932617 C-2.1390625 5.46392822 -2.809375 6.11853027 -3.5 6.79296875 C-4.221875 7.50517578 -4.94375 8.21738281 -5.6875 8.95117188 C-6.450625 9.68916016 -7.21375 10.42714844 -8 11.1875 C-9.1446875 12.31188477 -9.1446875 12.31188477 -10.3125 13.45898438 C-12.20180839 15.31286823 -14.09775206 17.15941069 -16 19 C-16.66 18.67 -17.32 18.34 -18 18 C-14.65348519 13.7122779 -11.07466717 10.20568225 -6.9375 6.6796875 C-4.49654333 4.56353555 -2.24804455 2.31829594 0 0 Z " fill="#DADAD8" transform="translate(293,939)"/>
<path d="M0 0 C0 3 0 3 -2.625 5.91796875 C-3.74249406 7.01550756 -4.86785643 8.10507895 -6 9.1875 C-6.57234375 9.74630859 -7.1446875 10.30511719 -7.734375 10.88085938 C-9.14962788 12.26073093 -10.57397155 13.63126734 -12 15 C-12.99 14.67 -13.98 14.34 -15 14 C-10.18045285 9.08406191 -5.39294334 4.28669855 0 0 Z " fill="#CDCDCB" transform="translate(1813,1302)"/>
<path d="M0 0 C0.33 0.66 0.66 1.32 1 2 C0.14883791 4.43189168 -0.84845643 6.69691285 -2 9 C-4.0625 9.625 -4.0625 9.625 -6 10 C-6.33 11.32 -6.66 12.64 -7 14 C-8.32 14.33 -9.64 14.66 -11 15 C-7.63737574 9.75430616 -3.86435321 4.88471613 0 0 Z " fill="#3E403D" transform="translate(1850,1012)"/>
<path d="M0 0 C2.64590014 -0.02684679 5.29153096 -0.04676357 7.9375 -0.0625 C8.69224609 -0.07087891 9.44699219 -0.07925781 10.22460938 -0.08789062 C12.14994313 -0.09652441 14.07535581 -0.05224333 16 0 C16.33 0.33 16.66 0.66 17 1 C18.51469448 1.23192865 20.03754562 1.41215238 21.5625 1.5625 C22.38878906 1.64628906 23.21507812 1.73007812 24.06640625 1.81640625 C24.70449219 1.87699219 25.34257813 1.93757813 26 2 C26 2.33 26 2.66 26 3 C17.10747704 3.26197285 8.75003718 2.6039348 0 1 C0 0.67 0 0.34 0 0 Z " fill="#6F6F6D" transform="translate(792,482)"/>
<path d="M0 0 C-3.72620825 1.92734909 -6.78952748 3.12940205 -11.01171875 3.09765625 C-12.14770508 3.09282227 -12.14770508 3.09282227 -13.30664062 3.08789062 C-14.09232422 3.07951172 -14.87800781 3.07113281 -15.6875 3.0625 C-16.48478516 3.05798828 -17.28207031 3.05347656 -18.10351562 3.04882812 C-20.06904257 3.0370585 -22.03453085 3.01912348 -24 3 C-24 2.67 -24 2.34 -24 2 C-21.50072231 1.66029235 -19.00080405 1.32811968 -16.5 1 C-15.80390625 0.90460938 -15.1078125 0.80921875 -14.390625 0.7109375 C-9.55299871 0.0838378 -4.87818804 -0.08789528 0 0 Z " fill="#585957" transform="translate(1596,1152)"/>
<path d="M0 0 C5.75 0.875 5.75 0.875 8 2 C11.01664809 2.23746209 14.03208414 2.38233317 17.0546875 2.5234375 C20.22449197 3.03632363 21.64679427 3.87415714 24 6 C21.31056352 5.74285478 18.62432453 5.4697388 15.9375 5.1875 C15.18533203 5.11724609 14.43316406 5.04699219 13.65820312 4.97460938 C8.57640806 4.42463155 4.60321286 3.23130504 0 1 C0 0.67 0 0.34 0 0 Z " fill="#7F7F7D" transform="translate(1352,1397)"/>
<path d="M0 0 C0.66 0.33 1.32 0.66 2 1 C1.67 1.99 1.34 2.98 1 4 C0.175 4.309375 -0.65 4.61875 -1.5 4.9375 C-2.325 5.288125 -3.15 5.63875 -4 6 C-4.88693303 8.04105639 -4.88693303 8.04105639 -5 10 C-6.32 9.01 -7.64 8.02 -9 7 C-6.03 4.69 -3.06 2.38 0 0 Z " fill="#222421" transform="translate(341,597)"/>
<path d="M0 0 C0.74609375 1.734375 0.74609375 1.734375 1 4 C-0.65234375 6.140625 -0.65234375 6.140625 -2.9375 8.25 C-3.68902344 8.95640625 -4.44054688 9.6628125 -5.21484375 10.390625 C-5.80394531 10.92171875 -6.39304687 11.4528125 -7 12 C-7.99 11.67 -8.98 11.34 -10 11 C-8.88200014 9.66079162 -7.75538103 8.32877444 -6.625 7 C-5.99851562 6.2575 -5.37203125 5.515 -4.7265625 4.75 C-4.15679688 4.1725 -3.58703125 3.595 -3 3 C-2.34 3 -1.68 3 -1 3 C-0.67 2.01 -0.34 1.02 0 0 Z " fill="#353734" transform="translate(1842,642)"/>
<path d="M0 0 C0 2 0 2 -2.25 4.375 C-3.1575 5.24125 -4.065 6.1075 -5 7 C-6.1446875 8.1446875 -6.1446875 8.1446875 -7.3125 9.3125 C-7.869375 9.869375 -8.42625 10.42625 -9 11 C-9.66 10.34 -10.32 9.68 -11 9 C-10.01 8.67 -9.02 8.34 -8 8 C-7.938125 7.236875 -7.87625 6.47375 -7.8125 5.6875 C-7 3 -7 3 -4.5625 1.1875 C-2 0 -2 0 0 0 Z " fill="#3E3F3E" transform="translate(1268,508)"/>
<path d="M0 0 C0 0.66 0 1.32 0 2 C-1.65385233 3.34919532 -3.321702 4.68133728 -5 6 C-5.99 7.485 -5.99 7.485 -7 9 C-7 8.34 -7 7.68 -7 7 C-8.98 7.33 -10.96 7.66 -13 8 C-10.83676753 5.68757908 -8.62352196 3.9843604 -5.9375 2.3125 C-5.24527344 1.87550781 -4.55304688 1.43851562 -3.83984375 0.98828125 C-2 0 -2 0 0 0 Z " fill="#393A37" transform="translate(1365,446)"/>
<path d="M0 0 C-6.32453722 3.68931338 -12.87262743 4.25454902 -20 4 C-20 3.67 -20 3.34 -20 3 C-13.19925959 1.09579269 -7.08076251 -0.40850553 0 0 Z " fill="#A9ABA8" transform="translate(664,748)"/>
<path d="M0 0 C2.0625 0.4375 2.0625 0.4375 4 1 C3.67 1.66 3.34 2.32 3 3 C3.33 3.99 3.66 4.98 4 6 C0.7 6 -2.6 6 -6 6 C-4 4 -2 2 0 0 Z " fill="#232522" transform="translate(1811,672)"/>
<path d="M0 0 C4 1.33333333 8 2.66666667 12 4 C12 4.99 12 5.98 12 7 C10.68 7.33 9.36 7.66 8 8 C8 6.68 8 5.36 8 4 C6.02 4.33 4.04 4.66 2 5 C1.34 3.35 0.68 1.7 0 0 Z " fill="#30312F" transform="translate(770,1285)"/>
<path d="M0 0 C2.01822917 0.26041667 4.03645833 0.52083333 6.0546875 0.78125 C8.00498344 1.0372485 8.00498344 1.0372485 10 1 C10.33 2.32 10.66 3.64 11 5 C12.65 5.33 14.3 5.66 16 6 C16 6.99 16 7.98 16 9 C12.05361258 7.85993252 9.85598116 6.85598116 7 4 C5.0040278 3.32136945 3.00431449 2.65358081 1 2 C0.67 1.34 0.34 0.68 0 0 Z " fill="#545452" transform="translate(1149,881)"/>
<path d="M0 0 C0.66 0.33 1.32 0.66 2 1 C1.01 2.485 1.01 2.485 0 4 C-0.99 4 -1.98 4 -3 4 C-3.433125 4.928125 -3.433125 4.928125 -3.875 5.875 C-5 8 -5 8 -7 10 C-7.99 9.34 -8.98 8.68 -10 8 C-6.7 5.36 -3.4 2.72 0 0 Z " fill="#4B4D4A" transform="translate(328,606)"/>
<path d="M0 0 C0 0.99 0 1.98 0 3 C-4.06629447 6.30386425 -7.95191192 6.57219593 -13 7 C-11.60643954 4.21287908 -9.83494327 3.73536671 -7.0625 2.375 C-6.16660156 1.92898438 -5.27070313 1.48296875 -4.34765625 1.0234375 C-2 0 -2 0 0 0 Z " fill="#454745" transform="translate(398,565)"/>
<path d="M0 0 C7.21471629 -0.35482211 13.12418702 0.8408662 20 3 C15.69577494 4.31052767 12.0629466 3.45785552 7.75 2.5625 C7.00492188 2.41490234 6.25984375 2.26730469 5.4921875 2.11523438 C3.65992335 1.7511306 1.82973947 1.37658591 0 1 C0 0.67 0 0.34 0 0 Z " fill="#8C8C8B" transform="translate(811,900)"/>
<path d="M0 0 C0 0.66 0 1.32 0 2 C-1.98 2.33 -3.96 2.66 -6 3 C-6 3.66 -6 4.32 -6 5 C-8.31 6.32 -10.62 7.64 -13 9 C-13.66 8.34 -14.32 7.68 -15 7 C-13.20856793 6.0204042 -11.41684696 5.0413367 -9.625 4.0625 C-8.62726563 3.51722656 -7.62953125 2.97195313 -6.6015625 2.41015625 C-2.15512465 0 -2.15512465 0 0 0 Z " fill="#464845" transform="translate(1462,390)"/>
<path d="M0 0 C0.33 1.32 0.66 2.64 1 4 C-2.50776784 5.60355101 -5.14354879 6.22036864 -9 6 C-3.15384615 0 -3.15384615 0 0 0 Z " fill="#2A2C2A" transform="translate(1333,466)"/>
<path d="M0 0 C0.66 0.33 1.32 0.66 2 1 C-1.39755422 4.79726648 -3.97801617 6.88400359 -9 8 C-9.66 7.67 -10.32 7.34 -11 7 C-9.21475351 5.80286983 -7.4215972 4.61752721 -5.625 3.4375 C-4.62726563 2.77621094 -3.62953125 2.11492187 -2.6015625 1.43359375 C-1.74304687 0.96050781 -0.88453125 0.48742187 0 0 Z " fill="#414240" transform="translate(1389,430)"/>
<path d="M0 0 C0 0.66 0 1.32 0 2 C-0.99 2 -1.98 2 -3 2 C-3.33 3.65 -3.66 5.3 -4 7 C-8.455 7.495 -8.455 7.495 -13 8 C-11.61432469 5.22864938 -9.43104832 4.43903909 -6.7890625 3 C-1.421875 0 -1.421875 0 0 0 Z " fill="#454744" transform="translate(1406,421)"/>
<path d="M0 0 C0.66 0.66 1.32 1.32 2 2 C4.58354218 2.16687448 4.58354218 2.16687448 7 2 C6.67 3.32 6.34 4.64 6 6 C4.35153231 5.55123384 2.70626545 5.09069512 1.0625 4.625 C0.14597656 4.36976563 -0.77054688 4.11453125 -1.71484375 3.8515625 C-4 3 -4 3 -5 1 C-2.625 0.375 -2.625 0.375 0 0 Z " fill="#383C3B" transform="translate(1279,529)"/>
<path d="M0 0 C0.57234375 0.23589844 1.1446875 0.47179687 1.734375 0.71484375 C-0.078125 2.71484375 -0.078125 2.71484375 -2.265625 4.71484375 C-3.255625 4.71484375 -4.245625 4.71484375 -5.265625 4.71484375 C-6.95361327 6.15234566 -6.95361327 6.15234566 -8.265625 7.71484375 C-8.925625 7.38484375 -9.585625 7.05484375 -10.265625 6.71484375 C-9.03009224 5.51229851 -7.77660161 4.32818143 -6.515625 3.15234375 C-5.81953125 2.49105469 -5.1234375 1.82976563 -4.40625 1.1484375 C-2.265625 -0.28515625 -2.265625 -0.28515625 0 0 Z " fill="#353634" transform="translate(409.265625,1007.28515625)"/>
<path d="M0 0 C-1.33333333 0.66666667 -2.66666667 1.33333333 -4 2 C-4.99 2.556875 -4.99 2.556875 -6 3.125 C-8 4 -8 4 -12 4 C-12 3.01 -12 2.02 -12 1 C-7.95858806 0.36605303 -4.0934693 -0.12404452 0 0 Z " fill="#545654" transform="translate(1652,1397)"/>
<path d="M0 0 C3.55420724 0.29618394 4.80337043 0.80337043 7.375 3.375 C8.179375 4.674375 8.179375 4.674375 9 6 C8.67 6.99 8.34 7.98 8 9 C6.66368764 7.6905332 5.33102075 6.37734515 4 5.0625 C3.2575 4.33160156 2.515 3.60070313 1.75 2.84765625 C0 1 0 1 0 0 Z " fill="#2F2F2E" transform="translate(241,1358)"/>
<path d="M0 0 C0 0.66 0 1.32 0 2 C-0.99 2 -1.98 2 -3 2 C-3.33 3.65 -3.66 5.3 -4 7 C-6.97 6.505 -6.97 6.505 -10 6 C-7.35570758 3.077361 -4.105808 0 0 0 Z " fill="#4A4B49" transform="translate(1770,701)"/>
<path d="M0 0 C0.66 0.33 1.32 0.66 2 1 C-1.07881696 4.87051275 -4.00073014 8.02911382 -8 11 C-8.66 10.67 -9.32 10.34 -10 10 C-6.7 6.7 -3.4 3.4 0 0 Z " fill="#5B5E5A" transform="translate(249,671)"/>
<path d="M0 0 C0.66 0 1.32 0 2 0 C-0.16158143 4.65571384 -2.12792241 7.98396789 -7 10 C-4.94196512 6.39843896 -2.75464117 3.11007874 0 0 Z " fill="#0C0D0C" transform="translate(1266,510)"/>
<path d="M0 0 C2.97 0.33 5.94 0.66 9 1 C9 1.99 9 2.98 9 4 C7.3125 4.8125 7.3125 4.8125 5 5 C2.25 2.5625 2.25 2.5625 0 0 Z " fill="#404543" transform="translate(266,1379)"/>
<path d="M0 0 C1 2 1 2 0.328125 4.12890625 C-0.02765625 4.93199219 -0.3834375 5.73507812 -0.75 6.5625 C-1.09546875 7.36816406 -1.4409375 8.17382812 -1.796875 9.00390625 C-3 11 -3 11 -6 12 C-4.43358249 7.69235185 -2.31663844 3.93828536 0 0 Z " fill="#434544" transform="translate(233,1184)"/>
<path d="M0 0 C3.3 0 6.6 0 10 0 C10 1.65 10 3.3 10 5 C8.68 4.67 7.36 4.34 6 4 C6 3.34 6 2.68 6 2 C3.03 1.505 3.03 1.505 0 1 C0 0.67 0 0.34 0 0 Z " fill="#464645" transform="translate(1165,890)"/>
<path d="M0 0 C0.33 0 0.66 0 1 0 C1.375 2.0625 1.375 2.0625 1 5 C-0.79177109 7.53572282 -2.84238121 9.77174488 -5 12 C-5 8.55639368 -4.20408468 7.25204608 -2.5 4.3125 C-2.0359375 3.50425781 -1.571875 2.69601562 -1.09375 1.86328125 C-0.7328125 1.24839844 -0.371875 0.63351562 0 0 Z " fill="#BABCBB" transform="translate(1855,851)"/>
<path d="M0 0 C0.66 0.33 1.32 0.66 2 1 C1.360625 1.103125 0.72125 1.20625 0.0625 1.3125 C-0.618125 1.539375 -1.29875 1.76625 -2 2 C-2.33 2.99 -2.66 3.98 -3 5 C-3.66 5 -4.32 5 -5 5 C-5 5.66 -5 6.32 -5 7 C-6.32 6.34 -7.64 5.68 -9 5 C-7.54735962 4.1361871 -6.0876837 3.28419546 -4.625 2.4375 C-3.40683594 1.72400391 -3.40683594 1.72400391 -2.1640625 0.99609375 C-1.44992187 0.66738281 -0.73578125 0.33867188 0 0 Z " fill="#BABAB8" transform="translate(481,806)"/>
<path d="M0 0 C0.33 0.66 0.66 1.32 1 2 C-0.43257963 4.72872311 -1.81722366 6.81722366 -4 9 C-4.99 8.67 -5.98 8.34 -7 8 C-4.69 5.36 -2.38 2.72 0 0 Z " fill="#454644" transform="translate(214,708)"/>
<path d="M0 0 C0.33 0.66 0.66 1.32 1 2 C-2.32307692 6.8 -2.32307692 6.8 -5.75 7.8125 C-6.4925 7.874375 -7.235 7.93625 -8 8 C-5.58443874 4.80800833 -3.31996462 2.25283313 0 0 Z " fill="#393937" transform="translate(277,646)"/>
<path d="M0 0 C0.66 0.33 1.32 0.66 2 1 C1.67 1.99 1.34 2.98 1 4 C-0.65 4 -2.3 4 -4 4 C-4 4.66 -4 5.32 -4 6 C-5.32 5.67 -6.64 5.34 -8 5 C-6.71475739 4.13619741 -5.42157581 3.28419631 -4.125 2.4375 C-3.04605469 1.72400391 -3.04605469 1.72400391 -1.9453125 0.99609375 C-1.30335937 0.66738281 -0.66140625 0.33867187 0 0 Z " fill="#3E3F3D" transform="translate(1276,502)"/>
<path d="M0 0 C9.59453303 1.74259681 9.59453303 1.74259681 13 5 C4.80743982 4.64989059 4.80743982 4.64989059 1.4375 1.9375 C0.963125 1.298125 0.48875 0.65875 0 0 Z " fill="#7A7A78" transform="translate(307,1401)"/>
<path d="M0 0 C0.66 0.33 1.32 0.66 2 1 C1.67 2.32 1.34 3.64 1 5 C-0.32 4.67 -1.64 4.34 -3 4 C-3.33 4.99 -3.66 5.98 -4 7 C-4.99 6.34 -5.98 5.68 -7 5 C-4.69 3.35 -2.38 1.7 0 0 Z " fill="#363834" transform="translate(1778,1081)"/>
<path d="M0 0 C0.33 0.99 0.66 1.98 1 3 C-1.36595933 5.61500768 -3.86049226 7.38999603 -7 9 C-7.66 8.67 -8.32 8.34 -9 8 C-6.03 5.36 -3.06 2.72 0 0 Z " fill="#454844" transform="translate(1814,1052)"/>
<path d="M0 0 C-0.33 2.31 -0.66 4.62 -1 7 C-1.66 7 -2.32 7 -3 7 C-3.33 6.34 -3.66 5.68 -4 5 C-6.01669827 3.86649466 -6.01669827 3.86649466 -8 3 C-2.25 0 -2.25 0 0 0 Z " fill="#CDCDCB" transform="translate(498,799)"/>
<path d="M0 0 C0.33 0.66 0.66 1.32 1 2 C-0.125 4.5625 -0.125 4.5625 -2 7 C-4.6875 7.8125 -4.6875 7.8125 -7 8 C-6.02133662 6.85373678 -5.04205413 5.70800212 -4.0625 4.5625 C-3.51722656 3.92441406 -2.97195312 3.28632812 -2.41015625 2.62890625 C-1.63204305 1.73008851 -0.84063472 0.84063472 0 0 Z " fill="#424441" transform="translate(238,682)"/>
<path d="M0 0 C0.33 0.66 0.66 1.32 1 2 C0.34 2 -0.32 2 -1 2 C-1.20625 2.61875 -1.4125 3.2375 -1.625 3.875 C-3.54775888 6.84653645 -5.66594527 7.13024659 -9 8 C-6.35039045 4.36905358 -3.98175544 2.10148204 0 0 Z " fill="#464745" transform="translate(298,629)"/>
<path d="M0 0 C0.8125 1.6875 0.8125 1.6875 1 4 C-1.1613627 6.51185394 -3.01962439 8.50981219 -6 10 C-4.34832443 6.4213696 -2.21713508 3.25179812 0 0 Z " fill="#555754" transform="translate(1857,622)"/>
<path d="M0 0 C0.66 0.33 1.32 0.66 2 1 C-0.23775234 4.3566285 -0.93320048 4.57996014 -4.625 5.6875 C-5.44226563 5.93886719 -6.25953125 6.19023438 -7.1015625 6.44921875 C-7.72804688 6.63097656 -8.35453125 6.81273437 -9 7 C-6.40307184 3.10460777 -4.16574232 2.08287116 0 0 Z " fill="#565656" transform="translate(365,582)"/>
<path d="M0 0 C0.33 0.66 0.66 1.32 1 2 C-0.98 4.31 -2.96 6.62 -5 9 C-5.66 8.67 -6.32 8.34 -7 8 C-4.69 5.36 -2.38 2.72 0 0 Z " fill="#40413F" transform="translate(289,1113)"/>
<path d="M0 0 C0.598125 0.350625 1.19625 0.70125 1.8125 1.0625 C0.4925 2.0525 -0.8275 3.0425 -2.1875 4.0625 C-3.5075 3.4025 -4.8275 2.7425 -6.1875 2.0625 C-4.66896708 -0.97456585 -3.05066334 -1.30742714 0 0 Z " fill="#E7E9E7" transform="translate(1776.1875,1080.9375)"/>
<path d="M0 0 C0.33 0.99 0.66 1.98 1 3 C-1.39509338 5.89932357 -3.31245243 6.50168276 -7 7 C-4.78071806 4.09197539 -3.07030857 2.04687238 0 0 Z " fill="#424342" transform="translate(340,1063)"/>
<path d="M0 0 C0.99 0.33 1.98 0.66 3 1 C2.67 1.99 2.34 2.98 2 4 C2.66 4 3.32 4 4 4 C4 4.66 4 5.32 4 6 C-1.75 4.25 -1.75 4.25 -4 2 C-2.68 2 -1.36 2 0 2 C0 1.34 0 0.68 0 0 Z " fill="#3B3C39" transform="translate(1220,914)"/>
<path d="M0 0 C4.12751449 0.60698743 7.3321148 2.03810791 11 4 C9.4375 4.75 9.4375 4.75 7 5 C4.49713591 3.86915563 2.32992278 2.47860484 0 1 C0 0.67 0 0.34 0 0 Z " fill="#585856" transform="translate(294,1395)"/>
<path d="M0 0 C0.6875 1.8125 0.6875 1.8125 1 4 C-0.25 5.75 -0.25 5.75 -2 7 C-2.99 7 -3.98 7 -5 7 C-4.34 5.68 -3.68 4.36 -3 3 C-2.34 3 -1.68 3 -1 3 C-0.67 2.01 -0.34 1.02 0 0 Z " fill="#3D403D" transform="translate(1828,1038)"/>
<path d="M0 0 C0.66 0 1.32 0 2 0 C1.8125 2.3125 1.8125 2.3125 1 5 C-1.5625 6.8125 -1.5625 6.8125 -4 8 C-2.87548273 5.0280615 -1.77706209 2.66559313 0 0 Z " fill="#494A48" transform="translate(1856,1003)"/>
<path d="M0 0 C2.31 0.33 4.62 0.66 7 1 C7 1.66 7 2.32 7 3 C8.32 3.66 9.64 4.32 11 5 C6.62886504 4.49172849 3.61004338 3.54826592 0 1 C0 0.67 0 0.34 0 0 Z " fill="#60605E" transform="translate(998,806)"/>
<path d="M0 0 C0.66 0 1.32 0 2 0 C2 0.66 2 1.32 2 2 C2.99 2.33 3.98 2.66 5 3 C3.68 4.32 2.36 5.64 1 7 C0.31292445 4.50935112 0 2.62113708 0 0 Z " fill="#DDE0E0" transform="translate(273,1384)"/>
<path d="M0 0 C0.66 0.33 1.32 0.66 2 1 C0.35 2.65 -1.3 4.3 -3 6 C-3.99 5.67 -4.98 5.34 -6 5 C-4.02 3.35 -2.04 1.7 0 0 Z " fill="#373838" transform="translate(397,1015)"/>
<path d="M0 0 C0.99 0.33 1.98 0.66 3 1 C2.67 2.65 2.34 4.3 2 6 C-0.475 5.01 -0.475 5.01 -3 4 C-2.01 3.67 -1.02 3.34 0 3 C0 2.01 0 1.02 0 0 Z " fill="#F0F0EE" transform="translate(1058,984)"/>
<path d="M0 0 C0.33 0.99 0.66 1.98 1 3 C-1.97 5.475 -1.97 5.475 -5 8 C-4.45773019 4.20411134 -2.79872437 2.52788007 0 0 Z " fill="#2C2E2B" transform="translate(328,1074)"/>
<path d="M0 0 C0.66 0.33 1.32 0.66 2 1 C0.68 2.65 -0.64 4.3 -2 6 C-3.32 5.67 -4.64 5.34 -6 5 C-4.02 3.35 -2.04 1.7 0 0 Z " fill="#4F514F" transform="translate(1791,1071)"/>
<path d="M0 0 C0.33 0.66 0.66 1.32 1 2 C-1.35277269 4.72426311 -3.62496331 5.8141763 -7 7 C-2.25 1.125 -2.25 1.125 0 0 Z " fill="#4B4D4A" transform="translate(1822,1045)"/>
<path d="M0 0 C0.66 0.99 1.32 1.98 2 3 C0.35 4.32 -1.3 5.64 -3 7 C-3.66 6.67 -4.32 6.34 -5 6 C-3.35 4.02 -1.7 2.04 0 0 Z " fill="#CCCCCB" transform="translate(1821,1293)"/>
<path d="M0 0 C0.98726527 2.66561622 1.0275526 3.90126985 0.25 6.6875 C-1 9 -1 9 -4 10 C-2.8905928 6.51329166 -1.73662334 3.22515763 0 0 Z " fill="#C2C2C1" transform="translate(1858,1236)"/>
<path d="M0 0 C0.66 0.99 1.32 1.98 2 3 C0.74458443 5.51083114 -0.50063488 5.87125446 -3 7 C-3 5.68 -3 4.36 -3 3 C-2.34 3 -1.68 3 -1 3 C-0.67 2.01 -0.34 1.02 0 0 Z " fill="#2F312F" transform="translate(270,1134)"/>
<path d="M0 0 C3.14624993 -0.26218749 4.61837017 -0.24754367 7.3125 1.5 C8.1478125 2.2425 8.1478125 2.2425 9 3 C6.03 2.67 3.06 2.34 0 2 C0 1.34 0 0.68 0 0 Z " fill="#42423F" transform="translate(747,1126)"/>
<path d="M0 0 C6.52307692 -0.36923077 6.52307692 -0.36923077 8.9375 1.5 C9.288125 1.995 9.63875 2.49 10 3 C2.25 2.25 2.25 2.25 0 0 Z " fill="#5E605E" transform="translate(664,1101)"/>
<path d="M0 0 C0.66 0 1.32 0 2 0 C1.67 1.32 1.34 2.64 1 4 C-0.65 4.33 -2.3 4.66 -4 5 C-2.71937515 3.2925002 -1.38232443 1.62626404 0 0 Z " fill="#494A48" transform="translate(321,1080)"/>
<path d="M0 0 C0.625 1.875 0.625 1.875 1 4 C0.34 4.66 -0.32 5.32 -1 6 C-1.66 6 -2.32 6 -3 6 C-3.99 6.495 -3.99 6.495 -5 7 C-3.70700306 4.11562221 -2.34058637 2.12780579 0 0 Z " fill="#515352" transform="translate(1838,1027)"/>
<path d="M0 0 C0.33 0.66 0.66 1.32 1 2 C-0.4375 4.625 -0.4375 4.625 -2 7 C-2.99 6.67 -3.98 6.34 -5 6 C-3.35 4.02 -1.7 2.04 0 0 Z " fill="#484A47" transform="translate(1844,1020)"/>
<path d="M0 0 C0.66 0.33 1.32 0.66 2 1 C0.35 2.65 -1.3 4.3 -3 6 C-3.66 5.34 -4.32 4.68 -5 4 C-3.35 2.68 -1.7 1.36 0 0 Z " fill="#3D3F3D" transform="translate(433,989)"/>
<path d="M0 0 C0.33 0.66 0.66 1.32 1 2 C-0.25 4.5625 -0.25 4.5625 -2 7 C-2.99 7.33 -3.98 7.66 -5 8 C-3.62845496 5.04590299 -2.01136276 2.55991624 0 0 Z " fill="#535553" transform="translate(1850,632)"/>
<path d="M0 0 C0.66 0.33 1.32 0.66 2 1 C1 4 1 4 -1.0625 5.1875 C-1.701875 5.455625 -2.34125 5.72375 -3 6 C-3.66 5.34 -4.32 4.68 -5 4 C-3.35 2.68 -1.7 1.36 0 0 Z " fill="#393A38" transform="translate(341,597)"/>
</svg>
